<svg width="35" height="25" viewBox="0 0 35 25" fill="none" xmlns="http://www.w3.org/2000/svg">
<path d="M34.9951 22.3121C34.9925 22.2361 34.9898 22.1596 34.9871 22.0829C34.9844 22.0062 34.9815 21.9293 34.9787 21.852L34.9765 21.7942L34.9754 21.7652L34.9751 21.7579L34.9743 21.6931L34.9741 21.69L34.9732 21.678L34.9658 21.582C34.9558 21.4538 34.9458 21.3251 34.9358 21.1964L34.9282 21.0989L34.9167 20.9725C34.9088 20.8885 34.9008 20.8045 34.8929 20.7207C34.8847 20.637 34.8765 20.5535 34.8683 20.4702C34.864 20.4286 34.8598 20.3871 34.8556 20.3456C34.8505 20.3073 34.8455 20.269 34.8404 20.2307C34.7984 19.9271 34.7609 19.6287 34.7075 19.3418C34.6822 19.1982 34.6589 19.0571 34.6326 18.9195C34.604 18.7823 34.576 18.6481 34.5487 18.5174C34.4971 18.2559 34.4322 18.0117 34.3775 17.7859C34.3635 17.7296 34.3498 17.6743 34.3365 17.6204C34.3216 17.5668 34.307 17.5144 34.2928 17.4633C34.264 17.3614 34.2367 17.2647 34.211 17.1739C34.1848 17.0833 34.1617 16.9982 34.1377 16.9201C34.1128 16.8424 34.0901 16.7709 34.0695 16.7063C34.0389 16.6115 34.0132 16.5316 33.9929 16.4685C33.9628 16.3754 33.8644 16.323 33.7702 16.3498L27.8529 18.0361C27.7628 18.0618 27.7069 18.1516 27.724 18.2438C27.7305 18.2782 27.7378 18.3176 27.746 18.3617C27.7544 18.4061 27.7638 18.4553 27.7739 18.5088C27.7835 18.5625 27.7911 18.6213 27.8008 18.6835C27.8103 18.7457 27.8204 18.812 27.831 18.8818C27.8362 18.9167 27.8424 18.9522 27.8472 18.989C27.8514 19.0258 27.8557 19.0636 27.8601 19.1021C27.8766 19.2563 27.9012 19.4215 27.9122 19.5987C27.9194 19.6869 27.9269 19.7775 27.9346 19.8699C27.9403 19.9627 27.9432 20.0578 27.9482 20.1539C27.961 20.346 27.9585 20.546 27.9622 20.7477L27.9631 20.8228L27.9604 20.8893C27.9589 20.9336 27.9574 20.978 27.9559 21.0225C27.9547 21.0669 27.9535 21.1113 27.9522 21.1559L27.9508 21.2224L27.9468 21.3183C27.9413 21.4473 27.9358 21.5763 27.9303 21.7048L27.9262 21.801L27.9256 21.8131L27.9255 21.816C27.9256 21.8305 27.9244 21.7014 27.9248 21.7571L27.9243 21.7619L27.9226 21.7809L27.9191 21.8189C27.9145 21.8695 27.9099 21.9197 27.9054 21.97C27.901 22.0201 27.8966 22.07 27.8923 22.1197C27.8864 22.1691 27.8806 22.2183 27.8747 22.2672C27.8621 22.3648 27.8544 22.4615 27.8388 22.5557C27.8252 22.65 27.8118 22.7426 27.7987 22.8333C27.783 22.9234 27.7676 23.0116 27.7527 23.0973C27.7393 23.1832 27.7212 23.2658 27.7051 23.3459C27.6883 23.4257 27.675 23.5033 27.6575 23.5769C27.6406 23.6505 27.6243 23.721 27.6088 23.788C27.6011 23.8211 27.5937 23.8533 27.5864 23.8847C27.579 23.9116 27.5718 23.9377 27.5648 23.963C27.5607 23.9785 27.5568 23.993 27.5527 24.008H34.7899C34.8869 24.008 34.9677 23.9319 34.9714 23.8349C34.9715 23.8344 34.9715 23.8338 34.9715 23.8332C34.9775 23.6984 34.9837 23.5601 34.99 23.4186C34.9927 23.2773 34.9954 23.1328 34.9983 22.986C35.0024 22.8393 34.998 22.6902 34.9975 22.5394C34.9967 22.4641 34.9959 22.3883 34.9951 22.3121Z" fill="#333333"/>
<path d="M33.1133 14.7158C33.2104 14.6768 33.2547 14.5643 33.2099 14.4697C33.19 14.4277 33.1668 14.3786 33.1405 14.323C33.1156 14.2707 33.0881 14.2129 33.0583 14.1499C33.0196 14.0712 32.9778 13.9861 32.9331 13.8951C32.8881 13.8045 32.8403 13.7081 32.7897 13.6065C32.7641 13.5537 32.7389 13.5101 32.7126 13.4605C32.6864 13.412 32.6595 13.3624 32.6321 13.3118C32.5769 13.2107 32.5205 13.105 32.46 12.9967C32.3975 12.8897 32.3328 12.7789 32.2664 12.6651C32.2331 12.6083 32.1993 12.5507 32.1651 12.4925C32.1294 12.4352 32.0931 12.3772 32.0566 12.3185C31.983 12.2017 31.9078 12.0823 31.8314 11.9609C31.6701 11.7233 31.5096 11.4747 31.3304 11.2329C31.2865 11.172 31.2422 11.1109 31.1979 11.0495L31.1312 10.9577L31.0618 10.8673C30.9689 10.7471 30.8757 10.6265 30.7825 10.5058C30.6877 10.3865 30.5895 10.2698 30.4933 10.1526C30.4447 10.0944 30.3976 10.0353 30.3479 9.97844C30.2982 9.92174 30.2486 9.86519 30.1991 9.80886C30.1496 9.75275 30.1004 9.69675 30.0513 9.64108C30.0026 9.58519 29.9534 9.53026 29.9027 9.47713C29.8024 9.37025 29.7033 9.2647 29.6058 9.16084C29.5082 9.05732 29.4071 8.96002 29.3109 8.86275C29.214 8.76601 29.1198 8.67099 29.0236 8.58275C28.9286 8.49374 28.836 8.40716 28.7466 8.32339C28.6575 8.23942 28.5665 8.16316 28.4818 8.08763C28.3963 8.01292 28.3144 7.94133 28.2366 7.87325C28.1567 7.80741 28.0809 7.745 28.0097 7.68635C27.9385 7.62792 27.8718 7.57325 27.8102 7.5227C27.7484 7.47234 27.6894 7.42868 27.6373 7.38797C27.5615 7.32979 27.4975 7.28065 27.4466 7.24159C27.369 7.18206 27.2585 7.19477 27.1961 7.27018L24.0202 11.1145C23.9603 11.187 23.9655 11.293 24.0323 11.3591C24.0588 11.3854 24.0895 11.4157 24.124 11.4499C24.157 11.4831 24.1949 11.5182 24.2337 11.5593C24.2725 11.6003 24.3145 11.6447 24.3593 11.692C24.4042 11.7392 24.452 11.7894 24.5022 11.8423C24.5508 11.8969 24.6018 11.9544 24.655 12.0143C24.7076 12.0748 24.7651 12.1349 24.8198 12.2019C24.8749 12.2682 24.9319 12.3367 24.9906 12.4072C25.0503 12.4764 25.1073 12.5515 25.1663 12.6274C25.2247 12.7038 25.2871 12.7791 25.3457 12.8599C25.4044 12.9405 25.4641 13.0223 25.5245 13.1052C25.5553 13.146 25.5845 13.1886 25.6133 13.2317C25.6424 13.2746 25.6716 13.3177 25.701 13.3609C25.7304 13.4039 25.76 13.4472 25.7895 13.4906C25.8191 13.534 25.8462 13.5794 25.8747 13.6238C25.9308 13.7134 25.9889 13.8016 26.0441 13.8919C26.0978 13.983 26.1515 14.0741 26.205 14.1649L26.2452 14.2326L26.2828 14.3017C26.3079 14.3476 26.3329 14.3935 26.3579 14.4391C26.4608 14.6192 26.5478 14.8049 26.6387 14.9794C26.6804 15.0688 26.7213 15.1567 26.7614 15.2429C26.7814 15.2858 26.8012 15.3282 26.8208 15.3701C26.839 15.4128 26.8569 15.4549 26.8746 15.4965C26.9101 15.5792 26.9447 15.6598 26.9782 15.7377C27.0091 15.8166 27.0389 15.8929 27.0676 15.966C27.082 16.0026 27.096 16.0384 27.1097 16.0733C27.1226 16.1074 27.1387 16.1444 27.1473 16.1728C27.1678 16.2324 27.1871 16.289 27.2053 16.3422C27.2239 16.3951 27.2413 16.4445 27.2574 16.4902C27.2785 16.5532 27.2979 16.611 27.3154 16.6632C27.3348 16.7216 27.352 16.7732 27.3668 16.8174C27.3998 16.9166 27.5097 16.9672 27.6068 16.9282L33.1133 14.7158Z" fill="#333333"/>
<path d="M16.9403 7.84899C16.9885 7.85555 17.0417 7.86281 17.0996 7.87073C17.1573 7.88075 17.2196 7.89162 17.2862 7.90323C17.3526 7.91465 17.4234 7.92677 17.4979 7.93959C17.5627 7.95035 17.6298 7.96597 17.6995 7.98056L19.7039 3.8807C19.6045 3.86519 19.5059 3.84979 19.4094 3.83473C19.3432 3.82489 19.2781 3.81358 19.2132 3.80547C19.1483 3.79762 19.0842 3.78985 19.021 3.78219C18.8946 3.76719 18.7718 3.75257 18.6529 3.73846C18.5338 3.72825 18.4187 3.71838 18.3082 3.70891C18.1976 3.70044 18.0922 3.68927 17.9913 3.68448C17.8906 3.67955 17.795 3.67483 17.7052 3.67041C17.6155 3.66617 17.5316 3.66223 17.4541 3.65855C17.3764 3.65729 17.3051 3.65615 17.2407 3.65512C17.15 3.65401 17.0731 3.65309 17.0114 3.65236C16.9136 3.65118 16.8327 3.72763 16.828 3.82533L16.6452 7.64132C16.6407 7.73534 16.7086 7.8172 16.8018 7.82998C16.8415 7.83544 16.8878 7.84181 16.9403 7.84899Z" fill="#333333"/>
<path d="M22.3272 9.95006C22.3811 9.98923 22.4322 10.0264 22.4801 10.0613C22.5282 10.0957 22.5732 10.1279 22.6147 10.1577C22.6328 10.1701 22.6625 10.1927 22.6868 10.2107C22.7118 10.2294 22.7356 10.2472 22.7582 10.2641C22.8075 10.3009 22.8511 10.3334 22.8884 10.3612C22.9722 10.4237 23.0912 10.4026 23.1487 10.3151L25.7656 6.32897C25.823 6.24151 25.7951 6.12387 25.7044 6.07181C25.664 6.04868 25.6169 6.02164 25.5635 5.99102C25.539 5.97695 25.5132 5.96217 25.4861 5.94662C25.4566 5.92994 25.4258 5.91247 25.3936 5.89427C25.3191 5.85323 25.2386 5.80891 25.1526 5.76149C25.0665 5.71459 24.9749 5.66471 24.8784 5.61206C24.7864 5.56597 24.6897 5.51753 24.5888 5.46694C24.4875 5.4175 24.3841 5.36249 24.2732 5.31257C24.1629 5.26203 24.0488 5.20975 23.9316 5.15599C23.8151 5.10103 23.6922 5.05111 23.5675 4.99872C23.4422 4.94743 23.3162 4.89136 23.1845 4.84188C23.1512 4.82924 23.1173 4.81646 23.0837 4.80371L21.9548 9.70363C22.0172 9.74283 22.076 9.78439 22.134 9.82189C22.2014 9.86658 22.2659 9.90935 22.3272 9.95006Z" fill="#333333"/>
<path d="M13.4265 7.82924C13.477 7.82258 13.5266 7.81432 13.5762 7.80909C13.6257 7.80408 13.6747 7.79911 13.723 7.79417C13.8193 7.78419 13.913 7.77446 14.0037 7.76503C14.0946 7.75895 14.1825 7.75305 14.2668 7.74738C14.3089 7.74451 14.3501 7.74171 14.3903 7.73894C14.4305 7.73625 14.4707 7.73283 14.5052 7.73279C14.5763 7.73091 14.6437 7.72918 14.707 7.72752C14.7702 7.72553 14.8292 7.72365 14.8839 7.72192C14.9513 7.72148 15.0132 7.72108 15.069 7.72071C15.1305 7.72038 15.1849 7.72008 15.2314 7.71982C15.3361 7.71927 15.4183 7.63067 15.4114 7.52625L15.1759 3.93158C15.169 3.82717 15.0759 3.75006 14.9721 3.76317C14.926 3.76899 14.8721 3.77581 14.811 3.78351C14.7544 3.79069 14.6918 3.79869 14.6235 3.80738C14.5429 3.81936 14.4558 3.83225 14.3626 3.84607C14.2697 3.86022 14.1708 3.87528 14.0666 3.89116C14.0132 3.89868 13.9641 3.90866 13.9126 3.91839C13.8612 3.92819 13.8086 3.93825 13.7549 3.94849C13.6478 3.96919 13.5362 3.99078 13.4206 4.01311C13.3059 4.03923 13.1872 4.06627 13.0653 4.09402C13.0045 4.10798 12.9428 4.12216 12.8804 4.13653C12.8181 4.15112 12.7556 4.16895 12.6922 4.18535C12.5656 4.21906 12.4364 4.2535 12.305 4.2885C12.1748 4.32774 12.0425 4.3676 11.9086 4.40798C11.8419 4.42865 11.7744 4.44814 11.7074 4.47021C11.6406 4.49301 11.5734 4.51589 11.506 4.53892C11.4386 4.56198 11.3711 4.58512 11.3033 4.60837C11.2355 4.63143 11.1676 4.6546 11.1007 4.68102C10.9664 4.73227 10.8316 4.78373 10.6968 4.8352C10.5625 4.88774 10.4305 4.94595 10.2982 5.00103C10.2323 5.02914 10.1662 5.05625 10.101 5.0851C10.0363 5.11498 9.97174 5.14475 9.90746 5.17444C9.84331 5.20414 9.77939 5.23376 9.71584 5.2632C9.65229 5.2926 9.58899 5.32155 9.52747 5.3535C9.40397 5.41583 9.28199 5.47743 9.16203 5.538C9.04204 5.59816 8.92768 5.66455 8.81409 5.72568C8.70103 5.78794 8.58984 5.84733 8.48495 5.91132C8.37947 5.97388 8.27686 6.03478 8.17761 6.09365C8.07806 6.15172 7.98574 6.21442 7.89525 6.27108C7.8054 6.32867 7.7193 6.38389 7.6374 6.43639C7.55727 6.4914 7.48122 6.54357 7.40979 6.59261C7.33853 6.64168 7.27185 6.68758 7.21018 6.73006C7.14858 6.77254 7.09409 6.81465 7.04387 6.85105C6.97582 6.9013 6.91772 6.94419 6.87071 6.97889C6.7922 7.03685 6.77378 7.1463 6.82868 7.22702L8.32133 9.42156C8.37446 9.49966 8.47832 9.52416 8.56058 9.4777C8.59849 9.45634 8.64329 9.43102 8.69439 9.40221C8.73894 9.37757 8.78713 9.34846 8.84154 9.32013C8.89592 9.29176 8.95472 9.26118 9.01754 9.22847C9.08017 9.19571 9.14685 9.16086 9.21711 9.12413C9.28858 9.08987 9.3637 9.05384 9.4421 9.01626C9.52087 8.97956 9.60078 8.93753 9.68696 8.90087C9.77247 8.86333 9.86089 8.82453 9.95181 8.78463C10.0418 8.74318 10.1372 8.70697 10.2336 8.66828C10.3306 8.63071 10.4277 8.58819 10.5294 8.55227C10.6307 8.51576 10.7337 8.47866 10.8379 8.44108C10.8896 8.42144 10.9428 8.40483 10.9961 8.38781C11.0493 8.37067 11.1028 8.35347 11.1565 8.33619C11.2101 8.31887 11.2639 8.30148 11.3178 8.28402C11.372 8.26755 11.427 8.25282 11.4817 8.23705C11.5914 8.20669 11.7004 8.17302 11.811 8.1448C11.9216 8.11742 12.0322 8.09005 12.1423 8.06282C12.197 8.04827 12.2525 8.03689 12.3077 8.0255C12.3628 8.0139 12.4178 8.00233 12.4726 7.9908C12.5272 7.97919 12.5816 7.96766 12.6358 7.95616C12.69 7.94533 12.7446 7.93697 12.7984 7.92728C12.9061 7.9086 13.0124 7.89011 13.117 7.87198C13.222 7.8575 13.3253 7.84321 13.4265 7.82924Z" fill="#333333"/>
<path d="M3.24864 10.6659C3.20952 10.7212 3.17024 10.7768 3.13079 10.8326C3.09144 10.8884 3.05194 10.9444 3.0123 11.0006C2.97284 11.0569 2.93593 11.1152 2.89754 11.1726C2.82187 11.2882 2.74442 11.4029 2.6703 11.5197C2.5979 11.6376 2.52551 11.7555 2.45341 11.8729L2.39962 11.9608L2.34856 12.0501C2.31462 12.1095 2.2808 12.1688 2.24709 12.2278C2.1093 12.4618 1.9896 12.7011 1.86795 12.9283C1.81133 13.0442 1.75562 13.1581 1.70109 13.2697C1.67405 13.3254 1.64727 13.3806 1.62085 13.4351C1.59598 13.4902 1.57145 13.5448 1.54721 13.5987C1.49894 13.7062 1.45201 13.8108 1.40658 13.912C1.36421 14.0144 1.32324 14.1134 1.28393 14.2084C1.2454 14.3036 1.20645 14.3938 1.17326 14.4813C1.14051 14.5689 1.10941 14.652 1.08016 14.7301C1.05105 14.808 1.02383 14.881 0.998664 14.9485C0.975417 15.0167 0.954085 15.0793 0.93478 15.1358C0.909728 15.2102 0.888212 15.274 0.870638 15.3262C0.839507 15.4186 0.886849 15.5187 0.977848 15.5536L2.36716 16.0862C2.45558 16.1201 2.55517 16.0806 2.59602 15.9951C2.61629 15.9528 2.64049 15.9022 2.66831 15.844C2.69137 15.7961 2.71687 15.743 2.74468 15.6852C2.77423 15.6282 2.80617 15.5667 2.84032 15.5008C2.87437 15.4352 2.91054 15.3652 2.94871 15.2916C2.98718 15.2181 3.03146 15.1428 3.07541 15.0632C3.11992 14.984 3.1663 14.9016 3.21431 14.8162C3.26489 14.7324 3.31717 14.6458 3.37096 14.5567C3.39774 14.5122 3.4249 14.4671 3.45238 14.4215C3.4813 14.3768 3.51059 14.3315 3.54017 14.2857C3.59934 14.1943 3.6598 14.101 3.72129 14.006C3.85193 13.8211 3.9797 13.6263 4.12408 13.4384C4.15934 13.391 4.19475 13.3433 4.23026 13.2955L4.2835 13.2238L4.33928 13.1537C4.41355 13.0601 4.48812 12.9663 4.56269 12.8724C4.63862 12.7797 4.71742 12.6894 4.79402 12.5984C4.83285 12.5532 4.87013 12.507 4.90989 12.4631C4.94968 12.4192 4.98932 12.3754 5.02881 12.3319C5.06823 12.2883 5.10747 12.2449 5.14652 12.2018C5.18521 12.1584 5.22426 12.1157 5.26482 12.0749C5.34462 11.9922 5.42347 11.9106 5.50102 11.8303C5.57842 11.75 5.65922 11.6756 5.73548 11.6004C5.81233 11.5257 5.88668 11.452 5.96324 11.3845C6.03854 11.316 6.11178 11.2493 6.18267 11.1848C6.25296 11.1199 6.32539 11.062 6.3923 11.0039C6.45965 10.9465 6.52419 10.8916 6.58557 10.8393C6.64585 10.7916 6.70303 10.7463 6.75674 10.7037C6.81016 10.6612 6.86016 10.6214 6.90639 10.5846C6.92761 10.567 6.95635 10.546 6.98063 10.5276C7.00554 10.5087 7.0293 10.4908 7.05185 10.4738C7.10096 10.4367 7.14432 10.404 7.18146 10.376C7.26498 10.313 7.27791 10.1928 7.20997 10.1132L5.62816 8.26011C5.56022 8.18054 5.43949 8.17446 5.36415 8.24703C5.33066 8.27931 5.2915 8.317 5.24721 8.3597C5.22688 8.37926 5.20543 8.39993 5.18296 8.42156C5.16008 8.44377 5.13831 8.464 5.10994 8.49299C5.05571 8.5477 4.99709 8.60691 4.93442 8.67013C4.87209 8.73339 4.80573 8.8007 4.73577 8.87165C4.67075 8.9421 4.60237 9.01615 4.53104 9.09341C4.4606 9.17125 4.38463 9.24969 4.31113 9.33568C4.23734 9.42123 4.16107 9.50968 4.08264 9.60057C4.00324 9.69039 3.92643 9.78688 3.8474 9.88477C3.76896 9.98318 3.68629 10.0814 3.60741 10.1854C3.52875 10.2894 3.44881 10.3952 3.3679 10.5024C3.32679 10.5554 3.28748 10.6103 3.24864 10.6659Z" fill="#333333"/>
<path d="M0.374131 17.1639C0.364883 17.2094 0.354052 17.2627 0.341783 17.323C0.330547 17.3784 0.318094 17.4397 0.304536 17.5064C0.291236 17.5746 0.278231 17.6552 0.263715 17.7374C0.249421 17.8205 0.234242 17.9088 0.218252 18.0019C0.210515 18.0484 0.201673 18.0963 0.194342 18.1447C0.187821 18.1928 0.181189 18.2419 0.174373 18.2921C0.148437 18.493 0.114284 18.7091 0.0946103 18.94C0.0831893 19.0551 0.0714735 19.1733 0.0594999 19.2941C0.0496262 19.415 0.0430315 19.5389 0.034521 19.6644C0.0146263 19.9154 0.0109789 20.1756 0.00268947 20.4389L0 20.5378L0.000478946 20.6372C0.000847367 20.7036 0.00121579 20.77 0.00158421 20.8367C0.00198947 20.9032 0.00239473 20.9699 0.00276315 21.0367L0.00338947 21.1368L0.00722104 21.2369C0.0126368 21.3702 0.0180526 21.5035 0.0234684 21.6363L0.0275578 21.7356L0.0288105 21.7677L0.0305789 21.7917L0.0341157 21.8396C0.0388315 21.9034 0.0435104 21.967 0.0481894 22.0304C0.0528683 22.0938 0.0575472 22.1569 0.0621525 22.2197C0.0685262 22.2852 0.0748262 22.3505 0.081163 22.4153C0.0875367 22.4801 0.0938735 22.5444 0.100173 22.6084C0.103342 22.6402 0.10651 22.6721 0.109679 22.7037C0.113621 22.7349 0.117563 22.7659 0.121468 22.7969C0.137163 22.9203 0.1526 23.0417 0.167705 23.1606C0.185942 23.2789 0.203773 23.3947 0.221089 23.5073C0.237299 23.6199 0.258189 23.7289 0.277384 23.8342C0.278968 23.8427 0.280552 23.851 0.282099 23.8593C0.298126 23.9455 0.373062 24.0079 0.460636 24.0079H0.950303C1.05486 24.0079 1.13783 23.9198 1.13168 23.8155C1.13002 23.7876 1.12832 23.7595 1.12644 23.7311C1.12033 23.6296 1.11296 23.5249 1.1106 23.4168C1.10707 23.3089 1.10346 23.1981 1.09973 23.0848C1.09903 22.9717 1.09833 22.856 1.09763 22.7384C1.09745 22.709 1.09727 22.6795 1.09708 22.65C1.09771 22.6208 1.09837 22.5915 1.09903 22.5621C1.10032 22.5034 1.10161 22.4443 1.10294 22.3848C1.10423 22.3255 1.10556 22.2657 1.10688 22.2056C1.10983 22.1427 1.11274 22.0794 1.11572 22.016C1.11867 21.9525 1.12166 21.8888 1.1246 21.8249L1.12685 21.7768L1.12796 21.7528L1.1281 21.7498C1.1281 21.7422 1.12825 21.7568 1.12832 21.7543L1.12877 21.7485L1.12969 21.7369L1.13713 21.644C1.147 21.52 1.15691 21.3957 1.16686 21.2713L1.17445 21.1782L1.18517 21.0853C1.19232 21.0235 1.19943 20.9617 1.20654 20.9001C1.21361 20.8385 1.22069 20.777 1.22772 20.7158L1.23822 20.6241L1.25182 20.5331C1.2891 20.291 1.32079 20.0529 1.36721 19.825C1.38898 19.7107 1.40847 19.5984 1.43083 19.489C1.45519 19.3801 1.47899 19.2735 1.50216 19.1697C1.54504 18.9619 1.60064 18.7687 1.64588 18.5896C1.65749 18.5449 1.66883 18.5011 1.67992 18.4584C1.69164 18.4163 1.70428 18.3764 1.71592 18.3369C1.73939 18.2583 1.76168 18.1838 1.7826 18.1137C1.80401 18.043 1.82158 17.9798 1.84206 17.9164C1.86354 17.8517 1.88322 17.7925 1.90105 17.7389C1.92043 17.6804 1.93756 17.6288 1.95222 17.5846C1.9852 17.4854 1.92761 17.3791 1.82652 17.3521L0.598978 17.0248C0.497846 16.9978 0.394983 17.0613 0.374131 17.1639Z" fill="#333333"/>
<path d="M14.2696 23.5261C14.669 23.7213 15.0921 23.8139 15.5086 23.8139C16.5541 23.8139 17.5588 23.2313 18.0489 22.2288C18.1433 22.0358 18.2164 21.8228 18.2639 21.6221L21.122 9.21678L22.2105 4.49242L22.8848 1.5658C22.9633 1.2252 22.6923 0.993164 22.4205 0.993164C22.2614 0.993164 22.1019 1.07271 22.012 1.25651L20.6398 4.06325L18.6156 8.20377L12.9723 19.7468C12.287 21.1487 12.8678 22.8407 14.2696 23.5261ZM15.6133 19.5311C16.3781 19.5311 16.9982 20.1511 16.9982 20.916C16.9982 21.6807 16.3781 22.3008 15.6133 22.3008C14.8485 22.3008 14.2285 21.6807 14.2285 20.916C14.2285 20.1511 14.8485 19.5311 15.6133 19.5311Z" fill="#333333"/>
</svg>
