<svg width="35" height="35" viewBox="0 0 35 35" fill="none" xmlns="http://www.w3.org/2000/svg">
<g clip-path="url(#clip0_105_4223)">
<path d="M34.9951 27.3113C34.9925 27.2352 34.9898 27.1588 34.9871 27.0821C34.9844 27.0054 34.9815 26.9284 34.9787 26.8511L34.9765 26.7933L34.9754 26.7643L34.9751 26.757L34.9743 26.6922L34.9741 26.6892L34.9732 26.6772L34.9658 26.5811C34.9558 26.453 34.9458 26.3242 34.9358 26.1955L34.9282 26.0981L34.9167 25.9717C34.9088 25.8876 34.9008 25.8036 34.8929 25.7198C34.8847 25.6362 34.8765 25.5526 34.8683 25.4693C34.864 25.4277 34.8598 25.3862 34.8556 25.3448C34.8505 25.3064 34.8455 25.2681 34.8404 25.2299C34.7984 24.9262 34.7609 24.6278 34.7075 24.3409C34.6822 24.1974 34.6589 24.0562 34.6326 23.9187C34.604 23.7814 34.576 23.6472 34.5487 23.5166C34.4971 23.2551 34.4322 23.0108 34.3775 22.7851C34.3635 22.7287 34.3498 22.6735 34.3365 22.6196C34.3216 22.5659 34.307 22.5136 34.2928 22.4625C34.264 22.3606 34.2367 22.2639 34.211 22.1731C34.1848 22.0824 34.1617 21.9973 34.1377 21.9193C34.1128 21.8415 34.0901 21.77 34.0695 21.7055C34.0389 21.6107 34.0132 21.5308 33.9929 21.4677C33.9628 21.3745 33.8644 21.3221 33.7702 21.3489L27.8529 23.0352C27.7628 23.0609 27.7069 23.1507 27.724 23.2429C27.7305 23.2773 27.7378 23.3167 27.746 23.3608C27.7544 23.4052 27.7638 23.4545 27.7739 23.508C27.7835 23.5617 27.7911 23.6205 27.8008 23.6826C27.8103 23.7448 27.8204 23.8111 27.831 23.8809C27.8362 23.9158 27.8424 23.9514 27.8472 23.9881C27.8514 24.025 27.8557 24.0627 27.8601 24.1012C27.8766 24.2554 27.9012 24.4207 27.9122 24.5979C27.9194 24.686 27.9269 24.7766 27.9346 24.8691C27.9403 24.9618 27.9432 25.0569 27.9482 25.1531C27.961 25.3451 27.9585 25.5451 27.9622 25.7468L27.9631 25.8219L27.9604 25.8884C27.9589 25.9327 27.9574 25.9771 27.9559 26.0217C27.9547 26.066 27.9535 26.1105 27.9522 26.155L27.9508 26.2216L27.9468 26.3174C27.9413 26.4465 27.9358 26.5754 27.9303 26.7039L27.9262 26.8002L27.9256 26.8122L27.9255 26.8151C27.9256 26.8296 27.9244 26.7005 27.9248 26.7563L27.9243 26.761L27.9226 26.78L27.9191 26.818C27.9145 26.8686 27.9099 26.9189 27.9054 26.9691C27.901 27.0192 27.8966 27.0692 27.8923 27.1188C27.8864 27.1682 27.8806 27.2175 27.8747 27.2663C27.8621 27.3639 27.8544 27.4607 27.8388 27.5549C27.8252 27.6491 27.8118 27.7417 27.7987 27.8325C27.783 27.9225 27.7676 28.0107 27.7527 28.0965C27.7393 28.1823 27.7212 28.265 27.7051 28.345C27.6883 28.4249 27.675 28.5024 27.6575 28.576C27.6406 28.6497 27.6243 28.7201 27.6088 28.7872C27.6011 28.8202 27.5937 28.8525 27.5864 28.8839C27.579 28.9108 27.5718 28.9368 27.5648 28.9622C27.5607 28.9776 27.5568 28.9921 27.5527 29.0071H34.7899C34.8869 29.0071 34.9677 28.931 34.9714 28.8341C34.9715 28.8335 34.9715 28.8329 34.9715 28.8324C34.9775 28.6976 34.9837 28.5592 34.99 28.4177C34.9927 28.2764 34.9954 28.132 34.9983 27.9851C35.0024 27.8384 34.998 27.6893 34.9975 27.5386C34.9967 27.4632 34.9959 27.3874 34.9951 27.3113Z" fill="white"/>
<path d="M33.1133 19.7152C33.2104 19.6761 33.2547 19.5637 33.2099 19.4691C33.19 19.4271 33.1668 19.3779 33.1405 19.3224C33.1156 19.2701 33.0881 19.2123 33.0583 19.1493C33.0196 19.0706 32.9778 18.9855 32.9331 18.8945C32.8881 18.8039 32.8403 18.7075 32.7897 18.6059C32.7641 18.5531 32.7389 18.5095 32.7126 18.4599C32.6864 18.4114 32.6595 18.3618 32.6321 18.3112C32.5769 18.2101 32.5205 18.1044 32.46 17.9961C32.3975 17.8891 32.3328 17.7783 32.2664 17.6645C32.2331 17.6077 32.1993 17.5501 32.1651 17.4919C32.1294 17.4346 32.0931 17.3765 32.0566 17.3179C31.983 17.2011 31.9078 17.0817 31.8314 16.9603C31.6701 16.7227 31.5096 16.4741 31.3304 16.2323C31.2865 16.1714 31.2422 16.1102 31.1979 16.0489L31.1312 15.9571L31.0618 15.8667C30.9689 15.7465 30.8757 15.6258 30.7825 15.5052C30.6877 15.3859 30.5895 15.2692 30.4933 15.152C30.4447 15.0938 30.3976 15.0347 30.3479 14.9778C30.2982 14.9211 30.2486 14.8646 30.1991 14.8082C30.1496 14.7521 30.1004 14.6961 30.0513 14.6405C30.0026 14.5846 29.9534 14.5296 29.9027 14.4765C29.8024 14.3696 29.7033 14.2641 29.6058 14.1602C29.5082 14.0567 29.4071 13.9594 29.3109 13.8621C29.214 13.7654 29.1198 13.6704 29.0236 13.5821C28.9286 13.4931 28.836 13.4066 28.7466 13.3228C28.6575 13.2388 28.5665 13.1626 28.4818 13.087C28.3963 13.0123 28.3144 12.9407 28.2366 12.8726C28.1567 12.8068 28.0809 12.7444 28.0097 12.6857C27.9385 12.6273 27.8718 12.5726 27.8102 12.5221C27.7484 12.4717 27.6894 12.4281 27.6373 12.3874C27.5615 12.3292 27.4975 12.28 27.4466 12.241C27.369 12.1814 27.2585 12.1942 27.1961 12.2696L24.0202 16.1139C23.9603 16.1864 23.9655 16.2924 24.0323 16.3585C24.0588 16.3848 24.0895 16.4151 24.124 16.4493C24.157 16.4825 24.1949 16.5176 24.2337 16.5586C24.2725 16.5997 24.3145 16.644 24.3593 16.6914C24.4042 16.7386 24.452 16.7888 24.5022 16.8417C24.5508 16.8963 24.6018 16.9538 24.655 17.0137C24.7076 17.0742 24.7651 17.1343 24.8198 17.2012C24.8749 17.2676 24.9319 17.3361 24.9906 17.4066C25.0503 17.4758 25.1073 17.5509 25.1663 17.6268C25.2247 17.7032 25.2871 17.7785 25.3457 17.8593C25.4044 17.9399 25.4641 18.0217 25.5245 18.1046C25.5553 18.1454 25.5845 18.188 25.6133 18.2311C25.6424 18.274 25.6716 18.317 25.701 18.3603C25.7304 18.4033 25.76 18.4466 25.7895 18.49C25.8191 18.5334 25.8462 18.5788 25.8747 18.6232C25.9308 18.7128 25.9889 18.801 26.0441 18.8913C26.0978 18.9824 26.1515 19.0735 26.205 19.1643L26.2452 19.232L26.2828 19.3011C26.3079 19.347 26.3329 19.3929 26.3579 19.4384C26.4608 19.6186 26.5478 19.8043 26.6387 19.9788C26.6804 20.0682 26.7213 20.1561 26.7614 20.2423C26.7814 20.2851 26.8012 20.3276 26.8208 20.3695C26.839 20.4121 26.8569 20.4543 26.8746 20.4958C26.9101 20.5786 26.9447 20.6592 26.9782 20.7371C27.0091 20.816 27.0389 20.8923 27.0676 20.9654C27.082 21.002 27.096 21.0378 27.1097 21.0727C27.1226 21.1068 27.1387 21.1437 27.1473 21.1722C27.1678 21.2318 27.1871 21.2884 27.2053 21.3416C27.2239 21.3945 27.2413 21.4439 27.2574 21.4896C27.2785 21.5526 27.2979 21.6104 27.3154 21.6626C27.3348 21.721 27.352 21.7726 27.3668 21.8168C27.3998 21.916 27.5097 21.9666 27.6068 21.9276L33.1133 19.7152Z" fill="white"/>
<path d="M16.9403 12.8486C16.9885 12.8552 17.0417 12.8624 17.0996 12.8704C17.1573 12.8804 17.2196 12.8913 17.2862 12.9029C17.3526 12.9143 17.4234 12.9264 17.4979 12.9392C17.5627 12.95 17.6298 12.9656 17.6995 12.9802L19.7039 8.88034C19.6045 8.86483 19.5059 8.84943 19.4094 8.83436C19.3432 8.82452 19.2781 8.81321 19.2132 8.80511C19.1483 8.79726 19.0842 8.78949 19.021 8.78182C18.8946 8.76683 18.7718 8.7522 18.6529 8.73809C18.5338 8.72789 18.4187 8.71801 18.3082 8.70854C18.1976 8.70007 18.0922 8.68891 17.9913 8.68412C17.8906 8.67918 17.795 8.67446 17.7052 8.67004C17.6155 8.66581 17.5316 8.66186 17.4541 8.65818C17.3764 8.65693 17.3051 8.65579 17.2407 8.65475C17.15 8.65365 17.0731 8.65273 17.0114 8.65199C16.9136 8.65081 16.8327 8.72726 16.828 8.82496L16.6452 12.641C16.6407 12.735 16.7086 12.8168 16.8018 12.8296C16.8415 12.8351 16.8878 12.8414 16.9403 12.8486Z" fill="white"/>
<path d="M22.3272 14.9498C22.3811 14.989 22.4322 15.0261 22.4801 15.0611C22.5282 15.0955 22.5732 15.1277 22.6147 15.1575C22.6328 15.1699 22.6625 15.1924 22.6868 15.2105C22.7118 15.2292 22.7356 15.247 22.7582 15.2638C22.8075 15.3006 22.8511 15.3331 22.8884 15.3609C22.9722 15.4235 23.0912 15.4024 23.1487 15.3149L25.7656 11.3287C25.823 11.2413 25.7951 11.1236 25.7044 11.0716C25.664 11.0484 25.6169 11.0214 25.5635 10.9908C25.539 10.9767 25.5132 10.9619 25.4861 10.9464C25.4566 10.9297 25.4258 10.9122 25.3936 10.894C25.3191 10.853 25.2386 10.8087 25.1526 10.7612C25.0665 10.7143 24.9749 10.6645 24.8784 10.6118C24.7864 10.5657 24.6897 10.5173 24.5888 10.4667C24.4875 10.4173 24.3841 10.3623 24.2732 10.3123C24.1629 10.2618 24.0488 10.2095 23.9316 10.1558C23.8151 10.1008 23.6922 10.0509 23.5675 9.99847C23.4422 9.94719 23.3162 9.89111 23.1845 9.84164C23.1512 9.829 23.1173 9.81621 23.0837 9.80347L21.9548 14.7034C22.0172 14.7426 22.076 14.7841 22.134 14.8216C22.2014 14.8663 22.2659 14.9091 22.3272 14.9498Z" fill="white"/>
<path d="M13.4265 12.8286C13.477 12.822 13.5266 12.8137 13.5762 12.8085C13.6257 12.8035 13.6747 12.7985 13.723 12.7936C13.8193 12.7836 13.913 12.7738 14.0037 12.7644C14.0946 12.7583 14.1825 12.7524 14.2668 12.7468C14.3089 12.7439 14.3501 12.7411 14.3903 12.7383C14.4305 12.7356 14.4707 12.7322 14.5052 12.7322C14.5763 12.7303 14.6437 12.7286 14.707 12.7269C14.7702 12.7249 14.8292 12.723 14.8839 12.7213C14.9513 12.7209 15.0132 12.7205 15.069 12.7201C15.1305 12.7198 15.1849 12.7195 15.2314 12.7192C15.3361 12.7187 15.4183 12.6301 15.4114 12.5256L15.1759 8.93097C15.169 8.82656 15.0759 8.74945 14.9721 8.76256C14.926 8.76838 14.8721 8.7752 14.811 8.7829C14.7544 8.79008 14.6918 8.79808 14.6235 8.80677C14.5429 8.81875 14.4557 8.83164 14.3626 8.84546C14.2697 8.85961 14.1708 8.87467 14.0666 8.89055C14.0132 8.89807 13.9641 8.90805 13.9126 8.91778C13.8612 8.92758 13.8086 8.93764 13.7549 8.94788C13.6478 8.96858 13.5362 8.99017 13.4206 9.0125C13.3059 9.03862 13.1872 9.06566 13.0653 9.0934C13.0045 9.10737 12.9428 9.12155 12.8804 9.13592C12.8181 9.15051 12.7556 9.16834 12.6922 9.18474C12.5656 9.21845 12.4364 9.25289 12.305 9.28789C12.1748 9.32713 12.0425 9.36699 11.9086 9.40737C11.8419 9.42804 11.7744 9.44753 11.7074 9.4696C11.6406 9.4924 11.5734 9.51528 11.506 9.53831C11.4386 9.56137 11.3711 9.58451 11.3033 9.60776C11.2355 9.63082 11.1676 9.65399 11.1007 9.68041C10.9664 9.73166 10.8316 9.78312 10.6968 9.83459C10.5625 9.88713 10.4305 9.94534 10.2982 10.0004C10.2323 10.0285 10.1662 10.0556 10.101 10.0845C10.0363 10.1144 9.97174 10.1441 9.90745 10.1738C9.84331 10.2035 9.77939 10.2331 9.71584 10.2626C9.65229 10.292 9.58899 10.3209 9.52747 10.3529C9.40397 10.4152 9.28199 10.4768 9.16203 10.5374C9.04204 10.5976 8.92768 10.6639 8.81409 10.7251C8.70103 10.7873 8.58984 10.8467 8.48495 10.9107C8.37947 10.9733 8.27686 11.0342 8.17761 11.093C8.07806 11.1511 7.98574 11.2138 7.89525 11.2705C7.8054 11.3281 7.7193 11.3833 7.6374 11.4358C7.55727 11.4908 7.48122 11.543 7.40979 11.592C7.33853 11.6411 7.27185 11.687 7.21018 11.7295C7.14858 11.7719 7.09409 11.814 7.04387 11.8504C6.97582 11.9007 6.91772 11.9436 6.87071 11.9783C6.7922 12.0362 6.77378 12.1457 6.82868 12.2264L8.32133 14.4209C8.37446 14.4991 8.47832 14.5236 8.56058 14.4771C8.59849 14.4557 8.64329 14.4304 8.69439 14.4016C8.73894 14.377 8.78713 14.3479 8.84154 14.3195C8.89592 14.2912 8.95472 14.2606 9.01754 14.2279C9.08017 14.1951 9.14685 14.1603 9.21711 14.1235C9.28858 14.0893 9.3637 14.0532 9.4421 14.0156C9.52087 13.979 9.60078 13.9369 9.68696 13.9003C9.77247 13.8627 9.86089 13.8239 9.95181 13.784C10.0418 13.7426 10.1372 13.7064 10.2336 13.6677C10.3306 13.6301 10.4277 13.5876 10.5294 13.5517C10.6307 13.5151 10.7337 13.478 10.8379 13.4405C10.8896 13.4208 10.9428 13.4042 10.9961 13.3872C11.0493 13.3701 11.1028 13.3529 11.1565 13.3356C11.2101 13.3183 11.2639 13.3009 11.3178 13.2834C11.372 13.2669 11.427 13.2522 11.4817 13.2364C11.5914 13.2061 11.7004 13.1724 11.811 13.1442C11.9216 13.1168 12.0322 13.0894 12.1423 13.0622C12.197 13.0477 12.2525 13.0363 12.3077 13.0249C12.3628 13.0133 12.4178 13.0017 12.4726 12.9902C12.5272 12.9786 12.5816 12.967 12.6358 12.9556C12.69 12.9447 12.7446 12.9364 12.7984 12.9267C12.9061 12.908 13.0124 12.8895 13.117 12.8714C13.222 12.8569 13.3253 12.8426 13.4265 12.8286Z" fill="white"/>
<path d="M3.24864 15.666C3.20952 15.7214 3.17024 15.777 3.13079 15.8328C3.09144 15.8885 3.05194 15.9445 3.0123 16.0007C2.97284 16.057 2.93593 16.1153 2.89754 16.1727C2.82187 16.2883 2.74442 16.403 2.6703 16.5199C2.5979 16.6377 2.52551 16.7556 2.45341 16.873L2.39962 16.9609L2.34856 17.0502C2.31462 17.1096 2.2808 17.1689 2.24709 17.2279C2.1093 17.462 1.9896 17.7012 1.86795 17.9285C1.81133 18.0443 1.75562 18.1583 1.70109 18.2698C1.67405 18.3255 1.64727 18.3807 1.62085 18.4352C1.59598 18.4904 1.57145 18.5449 1.54721 18.5988C1.49894 18.7063 1.45201 18.8109 1.40658 18.9121C1.36421 19.0146 1.32324 19.1135 1.28393 19.2085C1.2454 19.3038 1.20645 19.3939 1.17326 19.4814C1.14051 19.569 1.10941 19.6521 1.08016 19.7302C1.05105 19.8082 1.02383 19.8812 0.998664 19.9486C0.975417 20.0168 0.954085 20.0794 0.93478 20.136C0.909728 20.2103 0.888212 20.2741 0.870638 20.3264C0.839507 20.4187 0.886849 20.5189 0.977848 20.5537L2.36716 21.0864C2.45558 21.1203 2.55517 21.0807 2.59602 20.9953C2.61629 20.953 2.64049 20.9023 2.66831 20.8441C2.69137 20.7962 2.71687 20.7431 2.74468 20.6853C2.77423 20.6283 2.80617 20.5668 2.84032 20.5009C2.87437 20.4353 2.91054 20.3654 2.94871 20.2917C2.98718 20.2182 3.03146 20.1429 3.07541 20.0633C3.11992 19.9842 3.1663 19.9017 3.21431 19.8163C3.26489 19.7325 3.31717 19.6459 3.37096 19.5568C3.39774 19.5123 3.4249 19.4673 3.45238 19.4217C3.4813 19.3769 3.51059 19.3317 3.54017 19.2858C3.59934 19.1944 3.6598 19.1011 3.72129 19.0062C3.85193 18.8212 3.9797 18.6264 4.12408 18.4386C4.15934 18.3911 4.19475 18.3434 4.23026 18.2957L4.2835 18.2239L4.33928 18.1538C4.41355 18.0602 4.48812 17.9664 4.56269 17.8726C4.63862 17.7799 4.71742 17.6896 4.79402 17.5985C4.83285 17.5533 4.87013 17.5072 4.90989 17.4632C4.94968 17.4193 4.98932 17.3756 5.02881 17.332C5.06823 17.2884 5.10747 17.2451 5.14652 17.2019C5.18521 17.1585 5.22426 17.1159 5.26482 17.075C5.34462 16.9924 5.42347 16.9107 5.50102 16.8304C5.57842 16.7502 5.65922 16.6757 5.73548 16.6005C5.81233 16.5258 5.88668 16.4522 5.96324 16.3846C6.03854 16.3161 6.11178 16.2494 6.18267 16.1849C6.25296 16.1201 6.3254 16.0621 6.3923 16.004C6.45965 15.9466 6.52419 15.8917 6.58557 15.8394C6.64585 15.7917 6.70303 15.7464 6.75674 15.7039C6.81016 15.6613 6.86016 15.6215 6.90639 15.5847C6.92761 15.5671 6.95635 15.5461 6.98063 15.5277C7.00554 15.5089 7.0293 15.4909 7.05185 15.474C7.10096 15.4369 7.14432 15.4041 7.18146 15.3761C7.26498 15.3131 7.27791 15.1929 7.20997 15.1134L5.62816 13.2602C5.56022 13.1807 5.43949 13.1746 5.36415 13.2472C5.33066 13.2794 5.2915 13.3171 5.24721 13.3598C5.22688 13.3794 5.20543 13.4001 5.18296 13.4217C5.16008 13.4439 5.13831 13.4641 5.10994 13.4931C5.05571 13.5478 4.99709 13.607 4.93442 13.6703C4.87209 13.7335 4.80573 13.8008 4.73577 13.8718C4.67075 13.9422 4.60237 14.0163 4.53104 14.0935C4.4606 14.1714 4.38463 14.2498 4.31113 14.3358C4.23734 14.4213 4.16107 14.5098 4.08264 14.6007C4.00324 14.6905 3.92643 14.787 3.8474 14.8849C3.76896 14.9833 3.68629 15.0815 3.60741 15.1855C3.52875 15.2896 3.44881 15.3953 3.3679 15.5025C3.32679 15.5556 3.28748 15.6104 3.24864 15.666Z" fill="white"/>
<path d="M0.374131 22.1631C0.364883 22.2087 0.354052 22.262 0.341783 22.3223C0.330547 22.3776 0.318094 22.4389 0.304536 22.5056C0.291236 22.5739 0.278231 22.6544 0.263715 22.7367C0.249421 22.8197 0.234242 22.9081 0.218252 23.0012C0.210515 23.0476 0.201673 23.0956 0.194342 23.144C0.187821 23.192 0.181189 23.2412 0.174373 23.2913C0.148437 23.4922 0.114284 23.7084 0.0946103 23.9393C0.0831893 24.0544 0.0714735 24.1725 0.0594999 24.2933C0.0496262 24.4143 0.0430315 24.5381 0.034521 24.6637C0.0146263 24.9146 0.0109789 25.1749 0.00268947 25.4382L0 25.5371L0.000478946 25.6365C0.000847367 25.7028 0.00121579 25.7693 0.00158421 25.8359C0.00198947 25.9025 0.00239473 25.9692 0.00276315 26.0359L0.00338947 26.136L0.00722104 26.2362C0.0126368 26.3695 0.0180526 26.5028 0.0234684 26.6356L0.0275578 26.7348L0.0288105 26.767L0.0305789 26.791L0.0341157 26.8388C0.0388315 26.9026 0.0435104 26.9663 0.0481894 27.0297C0.0528683 27.0931 0.0575472 27.1562 0.0621525 27.219C0.0685262 27.2845 0.0748262 27.3497 0.081163 27.4146C0.0875367 27.4794 0.0938735 27.5437 0.100173 27.6076C0.103342 27.6395 0.10651 27.6713 0.109679 27.703C0.113621 27.7342 0.117563 27.7652 0.121468 27.7962C0.137163 27.9196 0.1526 28.041 0.167705 28.1598C0.185942 28.2781 0.203773 28.3939 0.221089 28.5066C0.237299 28.6192 0.258189 28.7282 0.277384 28.8335C0.278968 28.8419 0.280552 28.8502 0.282099 28.8586C0.298126 28.9447 0.373062 29.0071 0.460636 29.0071H0.950303C1.05486 29.0071 1.13783 28.9191 1.13168 28.8148C1.13002 28.7869 1.12832 28.7588 1.12644 28.7304C1.12033 28.6288 1.11296 28.5241 1.1106 28.4161C1.10707 28.3082 1.10346 28.1974 1.09973 28.0841C1.09903 27.9709 1.09833 27.8553 1.09763 27.7377C1.09745 27.7083 1.09727 27.6788 1.09708 27.6492C1.09771 27.6201 1.09837 27.5908 1.09903 27.5614C1.10032 27.5027 1.10161 27.4436 1.10294 27.3841C1.10423 27.3247 1.10556 27.2649 1.10688 27.2048C1.10983 27.142 1.11274 27.0787 1.11572 27.0153C1.11867 26.9518 1.12166 26.888 1.1246 26.8241L1.12685 26.7761L1.12796 26.7521L1.1281 26.7491C1.1281 26.7414 1.12825 26.7561 1.12832 26.7536L1.12877 26.7478L1.12969 26.7362L1.13713 26.6433C1.147 26.5193 1.15691 26.3949 1.16686 26.2705L1.17445 26.1774L1.18517 26.0846C1.19232 26.0227 1.19943 25.961 1.20654 25.8993C1.21361 25.8377 1.22069 25.7763 1.22772 25.7151L1.23822 25.6234L1.25182 25.5324C1.2891 25.2903 1.32079 25.0522 1.36721 24.8242C1.38898 24.71 1.40847 24.5976 1.43083 24.4883C1.45519 24.3793 1.47899 24.2727 1.50216 24.169C1.54504 23.9612 1.60064 23.768 1.64588 23.5889C1.65749 23.5442 1.66883 23.5004 1.67992 23.4576C1.69164 23.4155 1.70428 23.3757 1.71592 23.3362C1.73939 23.2576 1.76168 23.1831 1.7826 23.1129C1.80401 23.0423 1.82158 22.9791 1.84206 22.9157C1.86354 22.851 1.88322 22.7917 1.90105 22.7381C1.92043 22.6797 1.93756 22.6281 1.95222 22.5839C1.9852 22.4847 1.92761 22.3783 1.82652 22.3514L0.598978 22.024C0.497846 21.997 0.394983 22.0606 0.374131 22.1631Z" fill="white"/>
<path d="M14.2696 28.5257C14.669 28.7209 15.0921 28.8135 15.5086 28.8135C16.5541 28.8135 17.5588 28.231 18.0489 27.2284C18.1433 27.0355 18.2164 26.8224 18.2639 26.6218L21.122 14.2164L22.2105 9.49205L22.8848 6.56543C22.9633 6.22483 22.6923 5.9928 22.4205 5.9928C22.2614 5.9928 22.1019 6.07234 22.012 6.25615L20.6398 9.06288L18.6156 13.2034L12.9723 24.7464C12.287 26.1483 12.8678 27.8404 14.2696 28.5257ZM15.6133 24.5308C16.3781 24.5308 16.9982 25.1508 16.9982 25.9156C16.9982 26.6804 16.3781 27.3004 15.6133 27.3004C14.8485 27.3004 14.2285 26.6804 14.2285 25.9156C14.2285 25.1507 14.8485 24.5308 15.6133 24.5308Z" fill="white"/>
</g>
<defs>
<clipPath id="clip0_105_4223">
<rect width="35" height="35" fill="white"/>
</clipPath>
</defs>
</svg>
