<svg width="35" height="35" viewBox="0 0 35 35" fill="none" xmlns="http://www.w3.org/2000/svg">
<g clip-path="url(#clip0_118_41889)">
<path d="M15.5129 27.3404C14.1484 28.6013 12.2612 28.8837 10.5874 28.0777C9.98224 27.7863 9.4716 27.3839 9.07183 26.902L6.79266 31.9431C6.68896 32.1724 6.80476 32.3453 6.85931 32.4089C6.91387 32.4725 7.06706 32.6133 7.30946 32.5459L8.96868 32.084C9.15776 32.0315 9.34889 32.0061 9.53736 32.0061C10.3324 32.0061 11.0808 32.4561 11.4411 33.2018L12.1905 34.7526C12.2999 34.9792 12.5052 35.0018 12.5906 35.0001C12.6744 34.999 12.8806 34.9718 12.9842 34.7425L16.6095 26.7236C16.2112 26.8383 15.834 27.0436 15.5129 27.3404Z" fill="#333333"/>
<path d="M28.2072 31.9431L25.928 26.902C25.5282 27.384 25.0176 27.7863 24.4125 28.0777C22.7385 28.8837 20.8514 28.6013 19.487 27.3404C19.1658 27.0436 18.7886 26.8383 18.3901 26.7236L22.0154 34.7425C22.1191 34.9719 22.3253 34.999 22.4091 35.0001C22.4945 35.0018 22.6998 34.9792 22.8092 34.7526L23.5586 33.2018C23.9188 32.4561 24.6672 32.0061 25.4623 32.0061C25.6508 32.0061 25.842 32.0315 26.031 32.084L27.6902 32.5459C27.9326 32.6133 28.0859 32.4726 28.1404 32.4089C28.1951 32.3452 28.3109 32.1724 28.2072 31.9431Z" fill="#333333"/>
<path d="M29.9976 14.2045C28.1048 12.9084 27.5174 10.335 28.6605 8.34593C29.3476 7.15025 28.99 5.96873 28.4263 5.26169C27.8624 4.55485 26.79 3.94338 25.4716 4.34704C23.2783 5.01881 20.8999 3.87365 20.0574 1.73975C19.551 0.457051 18.4043 0 17.5001 0C16.5959 0 15.4492 0.457051 14.9428 1.73981C14.1003 3.87379 11.7221 5.01881 9.52865 4.34711C8.21006 3.94352 7.13785 4.55485 6.57395 5.26176C6.01019 5.9688 5.6526 7.15019 6.33968 8.346C7.48279 10.335 6.89544 12.9084 5.00257 14.2045C3.86466 14.9838 3.67428 16.2034 3.87539 17.0849C4.07651 17.9665 4.77733 18.9826 6.14062 19.1909C8.40837 19.5374 10.0541 21.601 9.88733 23.8891C9.78698 25.2645 10.6219 26.1738 11.4365 26.5662C12.2512 26.9585 13.4826 27.0444 14.4954 26.1084C15.3378 25.33 16.4191 24.9406 17.5 24.9406C18.5813 24.9406 19.6621 25.3297 20.5046 26.1084C21.5175 27.0445 22.749 26.9586 23.5636 26.5662C24.3783 26.1739 25.2131 25.2646 25.1128 23.8891C24.9461 21.6011 26.5918 19.5375 28.8595 19.1909C30.2228 18.9826 30.9235 17.9664 31.1247 17.0849C31.3259 16.2032 31.1354 14.9836 29.9976 14.2045ZM17.5001 22.9635C12.5389 22.9635 8.50271 18.9273 8.50271 13.9661C8.50271 9.00491 12.5389 4.96863 17.5001 4.96863C22.4614 4.96863 26.4975 9.00484 26.4975 13.966C26.4974 18.9272 22.4613 22.9635 17.5001 22.9635Z" fill="#333333"/>
<path d="M17.5 6.64648C13.4638 6.64648 10.1802 9.9302 10.1802 13.9663C10.1802 18.0025 13.4637 21.2862 17.5 21.2862C21.5363 21.2862 24.8199 18.0025 24.8199 13.9663C24.8199 9.9302 21.5362 6.64648 17.5 6.64648ZM21.2512 13.2566L16.6956 16.584C16.5511 16.6896 16.3776 16.7455 16.2009 16.7455C16.1554 16.7455 16.1097 16.7418 16.0641 16.7343C15.842 16.6976 15.6439 16.5731 15.5145 16.3888L14.1518 14.4486C13.8855 14.0694 13.9771 13.5463 14.3561 13.28C14.7352 13.0138 15.2583 13.1052 15.5246 13.4843L16.3962 14.7253L20.2618 11.902C20.6359 11.6289 21.1607 11.7103 21.4339 12.0845C21.7071 12.4586 21.6253 12.9833 21.2512 13.2566Z" fill="#333333"/>
</g>
<defs>
<clipPath id="clip0_118_41889">
<rect width="35" height="35" fill="white"/>
</clipPath>
</defs>
</svg>
