<svg width="35" height="35" viewBox="0 0 35 35" fill="none" xmlns="http://www.w3.org/2000/svg">
<g clip-path="url(#clip0_105_5054)">
<path d="M15.5129 27.3402C14.1484 28.6011 12.2612 28.8835 10.5874 28.0776C9.98224 27.7862 9.4716 27.3838 9.07183 26.9019L6.79266 31.943C6.68896 32.1723 6.80476 32.3452 6.85931 32.4088C6.91387 32.4724 7.06706 32.6131 7.30946 32.5457L8.96868 32.0839C9.15776 32.0313 9.34889 32.006 9.53736 32.006C10.3324 32.006 11.0808 32.456 11.4411 33.2017L12.1905 34.7525C12.2999 34.9791 12.5052 35.0017 12.5906 35C12.6744 34.9989 12.8806 34.9717 12.9842 34.7423L16.6095 26.7235C16.2112 26.8381 15.834 27.0434 15.5129 27.3402Z" fill="white"/>
<path d="M28.2072 31.943L25.928 26.9019C25.5282 27.3839 25.0176 27.7862 24.4125 28.0776C22.7385 28.8835 20.8514 28.6011 19.487 27.3402C19.1658 27.0434 18.7886 26.8381 18.3901 26.7235L22.0154 34.7423C22.1191 34.9718 22.3253 34.9989 22.4091 35C22.4945 35.0017 22.6998 34.9791 22.8092 34.7525L23.5586 33.2017C23.9188 32.456 24.6672 32.006 25.4623 32.006C25.6508 32.006 25.842 32.0313 26.031 32.0839L27.6902 32.5457C27.9326 32.6132 28.0859 32.4725 28.1404 32.4088C28.1951 32.3451 28.3109 32.1722 28.2072 31.943Z" fill="white"/>
<path d="M29.9976 14.2045C28.1048 12.9084 27.5174 10.335 28.6605 8.34593C29.3476 7.15025 28.99 5.96873 28.4263 5.26169C27.8624 4.55485 26.79 3.94338 25.4716 4.34704C23.2783 5.01881 20.8999 3.87365 20.0574 1.73975C19.551 0.457051 18.4043 0 17.5001 0C16.5959 0 15.4492 0.457051 14.9428 1.73981C14.1003 3.87379 11.7221 5.01881 9.52865 4.34711C8.21006 3.94352 7.13785 4.55485 6.57395 5.26176C6.01019 5.9688 5.6526 7.15019 6.33968 8.346C7.48279 10.335 6.89544 12.9084 5.00257 14.2045C3.86466 14.9838 3.67428 16.2034 3.87539 17.0849C4.07651 17.9665 4.77733 18.9826 6.14062 19.1909C8.40837 19.5374 10.0541 21.601 9.88733 23.8891C9.78698 25.2645 10.6219 26.1738 11.4365 26.5662C12.2512 26.9585 13.4826 27.0444 14.4954 26.1084C15.3378 25.33 16.4191 24.9406 17.5 24.9406C18.5813 24.9406 19.6621 25.3297 20.5046 26.1084C21.5175 27.0445 22.749 26.9586 23.5636 26.5662C24.3783 26.1739 25.2131 25.2646 25.1128 23.8891C24.9461 21.6011 26.5918 19.5375 28.8595 19.1909C30.2228 18.9826 30.9235 17.9664 31.1247 17.0849C31.3259 16.2032 31.1354 14.9836 29.9976 14.2045ZM17.5001 22.9635C12.5389 22.9635 8.50271 18.9273 8.50271 13.9661C8.50271 9.00491 12.5389 4.96863 17.5001 4.96863C22.4614 4.96863 26.4975 9.00484 26.4975 13.966C26.4974 18.9272 22.4613 22.9635 17.5001 22.9635Z" fill="white"/>
<path d="M17.5 6.64624C13.4638 6.64624 10.1802 9.92995 10.1802 13.9661C10.1802 18.0022 13.4637 21.2859 17.5 21.2859C21.5363 21.2859 24.8199 18.0022 24.8199 13.9661C24.8199 9.92995 21.5362 6.64624 17.5 6.64624ZM21.2512 13.2564L16.6956 16.5838C16.5511 16.6894 16.3776 16.7452 16.2009 16.7452C16.1554 16.7452 16.1097 16.7416 16.0641 16.734C15.842 16.6973 15.6439 16.5728 15.5145 16.3885L14.1518 14.4484C13.8855 14.0692 13.9771 13.546 14.3561 13.2798C14.7352 13.0135 15.2583 13.105 15.5246 13.4841L16.3962 14.7251L20.2618 11.9017C20.6359 11.6286 21.1607 11.7101 21.4339 12.0843C21.7071 12.4584 21.6253 12.9831 21.2512 13.2564Z" fill="white"/>
</g>
<defs>
<clipPath id="clip0_105_5054">
<rect width="35" height="35" fill="white"/>
</clipPath>
</defs>
</svg>
