<svg width="23" height="35" viewBox="0 0 23 35" fill="none" xmlns="http://www.w3.org/2000/svg">
<path d="M18.8759 3.70542C16.743 1.66831 13.9335 0.622413 10.9872 0.765968C5.6825 1.01206 1.32801 5.18198 0.863164 10.4662C0.610234 13.2894 1.46473 16.0443 3.25574 18.2181C5.06043 20.4125 6.53699 24.3021 6.53699 26.8929C6.53699 26.8929 6.39344 27.8363 7.24793 27.8773H15.7723C16.702 27.8089 16.4833 26.7152 16.4833 26.7152C16.4833 24.1859 17.9257 20.4056 19.703 18.2865C21.3095 16.3724 22.1913 13.9388 22.1913 11.4437C22.1845 8.49058 21.0087 5.74253 18.8759 3.70542ZM10.9393 26.4486L9.29871 16.475H13.7079L12.0673 26.4486H10.9393Z" fill="#333333"/>
<path d="M15.8545 29.6611H7.14551C6.74902 29.6611 6.43457 29.9824 6.43457 30.3721C6.43457 30.7686 6.75586 31.083 7.14551 31.083H7.80859C8.08887 32.8672 9.63379 34.2412 11.5 34.2412C13.3662 34.2412 14.9111 32.8672 15.1914 31.083H15.8545C16.251 31.083 16.5654 30.7617 16.5654 30.3721C16.5654 29.9824 16.251 29.6611 15.8545 29.6611ZM11.5 32.8193C10.4746 32.8193 9.60645 32.1494 9.30566 31.2266H13.6943C13.3936 32.1494 12.5254 32.8193 11.5 32.8193Z" fill="#333333"/>
</svg>
