<svg width="35" height="35" viewBox="0 0 35 35" fill="none" xmlns="http://www.w3.org/2000/svg">
<path d="M24.8759 3.70505C22.743 1.66795 19.9335 0.622047 16.9872 0.765602C11.6825 1.0117 7.32801 5.18162 6.86316 10.4658C6.61023 13.289 7.46473 16.0439 9.25574 18.2177C11.0604 20.4121 12.537 24.3017 12.537 26.8926C12.537 26.8926 12.3934 27.8359 13.2479 27.8769H21.7723C22.702 27.8086 22.4833 26.7148 22.4833 26.7148C22.4833 24.1855 23.9257 20.4052 25.703 18.2861C27.3095 16.372 28.1913 13.9385 28.1913 11.4433C28.1845 8.49021 27.0087 5.74216 24.8759 3.70505ZM16.9393 26.4482L15.2987 16.4746H19.7079L18.0673 26.4482H16.9393Z" fill="white"/>
<path d="M21.8545 29.6611H13.1455C12.749 29.6611 12.4346 29.9824 12.4346 30.3721C12.4346 30.7686 12.7559 31.083 13.1455 31.083H13.8086C14.0889 32.8672 15.6338 34.2412 17.5 34.2412C19.3662 34.2412 20.9111 32.8672 21.1914 31.083H21.8545C22.251 31.083 22.5654 30.7617 22.5654 30.3721C22.5654 29.9824 22.251 29.6611 21.8545 29.6611ZM17.5 32.8193C16.4746 32.8193 15.6064 32.1494 15.3057 31.2266H19.6943C19.3936 32.1494 18.5254 32.8193 17.5 32.8193Z" fill="white"/>
</svg>
