<svg width="35" height="35" viewBox="0 0 35 35" fill="none" xmlns="http://www.w3.org/2000/svg">
<g clip-path="url(#clip0_105_5091)">
<path d="M21.9488 18.6256L18.7496 16.7785V10.585C18.7496 9.89485 18.1901 9.33533 17.4999 9.33533C16.8098 9.33533 16.2502 9.89485 16.2502 10.585V17.5H16.2504C16.2508 17.9315 16.4745 18.351 16.875 18.5823L20.6991 20.7901C21.2968 21.1352 22.0611 20.9304 22.4062 20.3327C22.7513 19.735 22.5465 18.9706 21.9488 18.6256Z" fill="white"/>
<path d="M17.5 0C7.83501 0 0 7.83501 0 17.5C0 27.165 7.83501 35 17.5 35C27.165 35 35 27.165 35 17.5C35 7.83501 27.165 0 17.5 0ZM17.5 28.1641C11.6104 28.1641 6.83594 23.3896 6.83594 17.5C6.83594 11.6104 11.6104 6.83594 17.5 6.83594C23.3896 6.83594 28.1641 11.6104 28.1641 17.5C28.1641 23.3896 23.3896 28.1641 17.5 28.1641Z" fill="white"/>
</g>
<defs>
<clipPath id="clip0_105_5091">
<rect width="35" height="35" fill="white"/>
</clipPath>
</defs>
</svg>
