<svg width="26" height="15" viewBox="0 0 26 15" fill="none" xmlns="http://www.w3.org/2000/svg">
<path fill-rule="evenodd" clip-rule="evenodd" d="M13 15C7.54602 15 2.94201 11.2791 0.645067 9.07946C-0.215022 8.25581 -0.215022 6.74419 0.645067 5.92054C2.94201 3.72093 7.54602 0 13 0C18.4641 0 23.058 3.72093 25.3549 5.92054C26.215 6.74419 26.215 8.25581 25.3549 9.07946C23.058 11.2791 18.4641 15 13 15ZM13 1.24031C7.82934 1.24031 3.37712 5.0969 1.64682 6.74419C1.22183 7.16085 1.22183 7.70349 1.64682 7.9845C3.37712 9.63178 7.82934 13.4884 13 13.4884C18.1707 13.4884 22.6229 9.63178 24.3532 7.9845C24.7782 7.56783 24.7782 7.0155 24.3532 6.74419C22.6229 5.0969 18.1707 1.24031 13 1.24031Z" fill="#202020"/>
<path fill-rule="evenodd" clip-rule="evenodd" d="M12.9984 10.8723C10.9848 10.8723 9.40625 9.36065 9.40625 7.43235C9.40625 5.50406 10.9848 3.99243 12.9984 3.99243C15.012 3.99243 16.5905 5.50406 16.5905 7.43235C16.5905 9.36065 15.012 10.8723 12.9984 10.8723ZM12.9984 5.3684C11.8449 5.3684 10.8431 6.3277 10.8431 7.43235C10.8431 8.52732 11.8449 9.49631 12.9984 9.49631C14.1519 9.49631 15.1537 8.52732 15.1537 7.43235C15.1537 6.3277 14.1519 5.3684 12.9984 5.3684Z" fill="#202020"/>
</svg>
