<svg width="194" height="136" viewBox="0 0 194 136" fill="none" xmlns="http://www.w3.org/2000/svg">
<path fill-rule="evenodd" clip-rule="evenodd" d="M141.385 79.5664C140.268 79.5664 139.209 79.0354 138.282 78.1028C132.468 92.9851 115.864 106.261 96.6993 106.261C77.541 106.261 61.6095 93.0369 55.7634 78.2064C54.8228 79.1714 53.7515 79.7154 52.6215 79.7154C48.8003 79.7154 45.7041 73.5435 45.7041 65.9211C45.7041 58.3051 48.8003 52.1333 52.6215 52.1333C53.7842 52.1333 54.8815 52.7096 55.8483 53.7264C61.7597 39.0125 77.9525 28.4434 96.9998 28.4434C116.001 28.4434 132.161 38.9607 138.106 53.6228C139.085 52.5736 140.196 51.9843 141.385 51.9843C145.199 51.9843 148.295 58.1561 148.295 65.7721C148.295 73.3881 145.199 79.5664 141.385 79.5664Z" fill="#FEFEFE" stroke="#3A3A3A" stroke-width="2"/>
<path fill-rule="evenodd" clip-rule="evenodd" d="M48.623 72.7084C49.2632 74.9232 50.7329 77.8375 53.0452 77.8375C54.4953 77.8375 55.8344 76.8596 56.5333 75.0204C61.3408 91.9362 77.3638 104.39 96.7311 104.39C116.157 104.39 132.775 91.8585 137.523 74.8649C138.242 76.7171 139.574 77.7404 140.998 77.7404C143.311 77.7404 144.702 74.9103 145.342 72.6954C139.339 79.9876 137.491 70.3834 137.504 66.0832L137.445 57.1914C131.089 80.823 119.449 95.9449 96.6658 95.9449C73.8888 95.9449 62.5427 81.095 56.5268 57.2756V66.0767C56.5268 70.2409 54.7109 80.1042 48.623 72.7084Z" fill="#D3D3D3"/>
<path fill-rule="evenodd" clip-rule="evenodd" d="M97.0002 1.66455C100.416 1.66455 103.186 3.62684 103.186 6.04893C103.186 8.11484 101.174 10.0253 98.4569 10.5434C99.1035 12.7065 99.6588 14.876 99.6588 17.1167V29.7388H94.3025V17.1167C94.3025 14.8695 94.8578 12.7 95.5044 10.5369C92.8067 10.0124 90.8145 8.10188 90.8145 6.04893C90.8145 3.62684 93.584 1.66455 97.0002 1.66455Z" fill="#3A3A3A"/>
<path fill-rule="evenodd" clip-rule="evenodd" d="M109.169 43.3066H84.8309C75.5555 43.3066 67.9653 50.832 67.9653 60.0282V67.1584C67.9653 72.4365 72.3222 76.7562 77.6457 76.7562H116.354C121.678 76.7562 126.035 72.4365 126.035 67.1584V60.0282C126.035 50.832 118.445 43.3066 109.169 43.3066Z" fill="#3A3A3A"/>
<path fill-rule="evenodd" clip-rule="evenodd" d="M88.5554 63.2376C87.074 66.397 83.2909 67.7672 80.1042 66.2985C76.9175 64.8298 75.5355 61.079 77.0169 57.9195C78.4983 54.76 82.2813 53.3898 85.468 54.8586C88.6548 56.3273 90.0368 60.0781 88.5554 63.2376Z" fill="url(#paint0_linear_513_12036)" stroke="#2B2A29" stroke-width="0.755906"/>
<path fill-rule="evenodd" clip-rule="evenodd" d="M117.249 60.5891C117.243 64.0732 114.39 66.8923 110.876 66.8867C107.362 66.8811 104.519 64.0529 104.524 60.5688C104.53 57.0846 107.382 54.2655 110.897 54.2711C114.411 54.2767 117.254 57.1049 117.249 60.5891Z" fill="url(#paint1_linear_513_12036)" stroke="#2B2A29" stroke-width="0.755906"/>
<path d="M76.3887 60.6578C76.3887 57.1564 79.2516 54.3179 82.7832 54.3179C86.3148 54.3179 89.1778 57.1564 89.1778 60.6578C89.1778 64.1592 86.3148 66.9977 82.7832 66.9977C79.2516 66.9977 76.3887 64.1592 76.3887 60.6578Z" fill="url(#paint2_linear_513_12036)"/>
<path d="M104.559 60.6578C104.559 57.1564 107.422 54.3179 110.953 54.3179C114.485 54.3179 117.348 57.1564 117.348 60.6578C117.348 64.1592 114.485 66.9977 110.953 66.9977C107.422 66.9977 104.559 64.1592 104.559 60.6578Z" fill="url(#paint3_linear_513_12036)"/>
<path fill-rule="evenodd" clip-rule="evenodd" d="M141.385 79.5664C140.268 79.5664 139.209 79.0354 138.282 78.1028C132.468 92.9851 115.864 106.261 96.6993 106.261C77.541 106.261 61.6095 93.0369 55.7634 78.2064C54.8228 79.1714 53.7515 79.7154 52.6215 79.7154C48.8003 79.7154 45.7041 73.5435 45.7041 65.9211C45.7041 58.3051 48.8003 52.1333 52.6215 52.1333C53.7842 52.1333 54.8815 52.7096 55.8483 53.7264C61.7597 39.0125 77.9525 28.4434 96.9998 28.4434C116.001 28.4434 132.161 38.9607 138.106 53.6228C139.085 52.5736 140.196 51.9843 141.385 51.9843C145.199 51.9843 148.295 58.1561 148.295 65.7721C148.295 73.3881 145.199 79.5664 141.385 79.5664Z" stroke="#3A3A3A" stroke-width="2"/>
<path d="M61.3611 121.306C62.674 121.306 63.4317 121.94 63.4317 124.091V127.096H59.2513V124.155C59.2513 121.94 59.9763 121.306 61.3611 121.306ZM63.4317 130.534V131.856C63.4317 133.507 64.196 134.323 66.443 134.323C68.7096 134.323 69.2387 133.021 69.2387 126.616C69.2387 119.544 64.7185 117.239 61.4134 117.239C58.0886 117.239 53.4443 119.544 53.4443 126.616C53.4443 133.021 53.9996 134.323 56.2466 134.323C58.5001 134.323 59.2513 133.507 59.2513 131.856V130.534H63.4317Z" fill="#333333"/>
<path d="M77.822 130.573V120.01C77.8155 117.588 76.5613 117.245 74.8826 117.245C73.2561 117.245 72.0347 118.003 72.0347 120.237V130.761C72.0477 133.52 73.0014 134.323 74.8826 134.323C76.803 134.323 77.822 133.222 77.822 130.573Z" fill="#333333"/>
<path d="M98.574 130.573V121.558L100.919 121.552C102.735 121.545 103.826 121.137 103.826 119.48C103.826 117.796 103.009 117.265 101.174 117.265H90.3959C88.3384 117.265 87.4565 117.763 87.4565 119.305C87.4565 121.099 88.6715 121.545 90.6311 121.552L92.7736 121.558L92.8128 130.768C92.8258 133.52 93.7599 134.323 95.6411 134.323C97.555 134.323 98.574 133.475 98.574 130.573Z" fill="#333333"/>
<path d="M110.109 125.833L107.111 128.812C106.131 129.867 105.634 130.67 105.634 131.428C105.634 132.121 106.007 132.756 106.673 133.416C107.287 134.025 107.94 134.323 108.626 134.323C109.449 134.323 110.474 133.954 111.382 132.814L114.054 129.2L117.281 133.364C117.914 134.129 118.62 134.336 119.214 134.336C119.952 134.336 120.619 133.895 121.285 133.306C121.977 132.697 122.343 131.933 122.343 131.143C122.343 130.469 121.964 129.802 121.298 129.064L117.882 125.548L120.867 122.743C121.866 121.72 122.343 120.885 122.343 120.121C122.343 119.434 121.964 118.799 121.298 118.139C120.697 117.543 120.037 117.258 119.345 117.258C118.528 117.258 117.516 117.64 116.588 118.773L113.923 122.297L110.69 118.217C110.056 117.459 109.358 117.245 108.757 117.245C108.018 117.245 107.352 117.685 106.686 118.275C106 118.884 105.634 119.648 105.634 120.438C105.634 121.111 105.994 121.804 106.673 122.517L110.109 125.833Z" fill="#333333"/>
<path d="M135.297 130.573V121.558L137.649 121.552C139.465 121.545 140.556 121.137 140.556 119.48C140.556 117.796 139.733 117.265 137.904 117.265H127.126C125.068 117.265 124.187 117.763 124.187 119.305C124.187 121.099 125.395 121.545 127.361 121.552L129.504 121.558L129.536 130.768C129.556 133.52 130.49 134.323 132.371 134.323C134.285 134.323 135.297 133.475 135.297 130.573Z" fill="#333333"/>
<defs>
<linearGradient id="paint0_linear_513_12036" x1="79.53" y1="52.5595" x2="79.2665" y2="68.8507" gradientUnits="userSpaceOnUse">
<stop stop-color="#00FF88"/>
<stop offset="1" stop-color="#00BBFF"/>
</linearGradient>
<linearGradient id="paint1_linear_513_12036" x1="104.534" y1="54.6579" x2="111.098" y2="69.5952" gradientUnits="userSpaceOnUse">
<stop stop-color="#00FF88"/>
<stop offset="1" stop-color="#00BBFF"/>
</linearGradient>
<linearGradient id="paint2_linear_513_12036" x1="82.7832" y1="54.3179" x2="82.7832" y2="66.9977" gradientUnits="userSpaceOnUse">
<stop stop-color="#00FF88"/>
<stop offset="1" stop-color="#00BBFF"/>
</linearGradient>
<linearGradient id="paint3_linear_513_12036" x1="110.953" y1="54.3179" x2="110.953" y2="66.9977" gradientUnits="userSpaceOnUse">
<stop stop-color="#00FF88"/>
<stop offset="1" stop-color="#00BBFF"/>
</linearGradient>
</defs>
</svg>
