<svg width="18" height="25" viewBox="0 0 18 25" fill="none" xmlns="http://www.w3.org/2000/svg">
<path d="M9.40245 24.462C8.23645 24.462 7.11445 24.264 6.03645 23.868C4.98045 23.472 4.06745 22.944 3.29745 22.284L2.80245 24.231H1.44945L0.822445 16.938L2.43945 16.74C2.74745 17.686 3.12145 18.522 3.56145 19.248C4.02345 19.974 4.54045 20.59 5.11245 21.096C5.68445 21.58 6.31145 21.954 6.99345 22.218C7.69745 22.46 8.42345 22.581 9.17145 22.581C10.0954 22.581 10.8654 22.427 11.4814 22.119C12.1194 21.811 12.6034 21.371 12.9334 20.799C13.2634 20.227 13.4284 19.556 13.4284 18.786C13.4284 17.928 13.2524 17.202 12.9004 16.608C12.5484 16.014 11.9874 15.497 11.2174 15.057C10.4694 14.595 9.47945 14.177 8.24745 13.803C7.08145 13.429 6.06945 13.033 5.21145 12.615C4.37545 12.175 3.67145 11.68 3.09945 11.13C2.54945 10.58 2.13145 9.953 1.84545 9.249C1.58145 8.523 1.44945 7.698 1.44945 6.774C1.44945 6.004 1.55945 5.289 1.77945 4.629C1.99945 3.969 2.31845 3.375 2.73645 2.847C3.15445 2.297 3.67145 1.824 4.28745 1.428C4.90345 1.01 5.59645 0.690999 6.36645 0.470998C7.13645 0.250998 7.97245 0.140998 8.87445 0.140998C9.88645 0.140998 10.8214 0.305999 11.6794 0.636C12.5594 0.966 13.3184 1.395 13.9564 1.923L14.3854 0.140998H15.7384L16.5304 7.137L14.8804 7.401C14.5284 6.125 14.0664 5.08 13.4944 4.266C12.9224 3.452 12.2624 2.847 11.5144 2.451C10.7884 2.055 9.96345 1.857 9.03945 1.857C7.85145 1.857 6.89445 2.187 6.16845 2.847C5.46445 3.507 5.11245 4.387 5.11245 5.487C5.11245 6.257 5.28845 6.917 5.64045 7.467C5.99245 7.995 6.54245 8.468 7.29045 8.886C8.03845 9.282 9.00645 9.689 10.1944 10.107C11.3824 10.481 12.4164 10.899 13.2964 11.361C14.1764 11.801 14.9024 12.307 15.4744 12.879C16.0464 13.429 16.4754 14.056 16.7614 14.76C17.0474 15.464 17.1904 16.278 17.1904 17.202C17.1904 18.28 16.9814 19.27 16.5634 20.172C16.1674 21.052 15.6064 21.822 14.8804 22.482C14.1764 23.12 13.3514 23.615 12.4054 23.967C11.4814 24.297 10.4804 24.462 9.40245 24.462Z" fill="#333333"/>
</svg>
