<svg width="24" height="24" viewBox="0 0 24 24" fill="none" xmlns="http://www.w3.org/2000/svg">
<path d="M0.0880314 24V22.581L1.87003 22.35C2.28803 22.284 2.56303 22.141 2.69503 21.921C2.82703 21.701 2.89303 21.283 2.89303 20.667V3.804C2.89303 3.254 2.81603 2.869 2.66203 2.649C2.53003 2.429 2.23303 2.297 1.77103 2.253L0.0880314 2.022V0.602998H9.62503V2.022L7.84303 2.253C7.46903 2.319 7.20503 2.462 7.05103 2.682C6.91903 2.902 6.85303 3.32 6.85303 3.936V11.064H17.182V3.804C17.182 3.254 17.105 2.88 16.951 2.682C16.819 2.462 16.533 2.319 16.093 2.253L14.443 2.022V0.602998H23.914V2.022L22.198 2.253C21.78 2.297 21.505 2.44 21.373 2.682C21.241 2.902 21.175 3.32 21.175 3.936V20.799C21.175 21.349 21.241 21.734 21.373 21.954C21.527 22.152 21.824 22.284 22.264 22.35L23.914 22.581V24H14.443V22.581L16.159 22.35C16.577 22.284 16.852 22.141 16.984 21.921C17.116 21.701 17.182 21.283 17.182 20.667V12.945H6.85303V20.799C6.85303 21.349 6.91903 21.734 7.05103 21.954C7.20503 22.152 7.49103 22.284 7.90903 22.35L9.62503 22.581V24H0.0880314Z" fill="#333333"/>
</svg>
