<svg width="19" height="24" viewBox="0 0 19 24" fill="none" xmlns="http://www.w3.org/2000/svg">
<path d="M0.66518 24V22.581L2.44718 22.35C2.86518 22.284 3.14018 22.141 3.27218 21.921C3.40418 21.701 3.47018 21.272 3.47018 20.634V3.804C3.47018 3.254 3.39318 2.869 3.23918 2.649C3.10718 2.429 2.81018 2.297 2.34818 2.253L0.66518 2.022V0.602998H9.34418C10.5102 0.602998 11.5662 0.690998 12.5122 0.866999C13.4802 1.021 14.3272 1.274 15.0532 1.626C15.7792 1.978 16.3842 2.418 16.8682 2.946C17.3742 3.452 17.7482 4.068 17.9902 4.794C18.2322 5.498 18.3532 6.301 18.3532 7.203C18.3532 8.171 18.2102 9.051 17.9242 9.843C17.6382 10.635 17.2422 11.328 16.7362 11.922C16.2302 12.516 15.6252 13.011 14.9212 13.407C14.2392 13.803 13.4802 14.111 12.6442 14.331C11.8302 14.529 10.9722 14.628 10.0702 14.628C9.47618 14.628 8.93718 14.617 8.45318 14.595C7.96918 14.551 7.62818 14.507 7.43018 14.463V20.7C7.43018 21.272 7.50718 21.679 7.66118 21.921C7.83718 22.163 8.17818 22.306 8.68418 22.35L10.9612 22.581V24H0.66518ZM9.21218 12.912C10.8402 12.912 12.0612 12.45 12.8752 11.526C13.7112 10.58 14.1292 9.183 14.1292 7.335C14.1292 6.125 13.9422 5.146 13.5682 4.398C13.2162 3.65 12.6662 3.111 11.9182 2.781C11.1702 2.429 10.2022 2.253 9.01418 2.253H7.43018V12.78C7.60618 12.824 7.84818 12.857 8.15618 12.879C8.48618 12.901 8.83818 12.912 9.21218 12.912Z" fill="#333333"/>
</svg>
