<svg width="24" height="24" viewBox="0 0 24 24" fill="none" xmlns="http://www.w3.org/2000/svg">
<path d="M0.0726915 24V22.581L1.82169 22.35C2.28369 22.262 2.56969 22.097 2.67969 21.855C2.78969 21.591 2.84469 21.195 2.84469 20.667V3.804C2.84469 3.276 2.77869 2.902 2.64669 2.682C2.53669 2.462 2.23969 2.319 1.75569 2.253L0.0726915 2.022V0.602998H23.9317V2.022L22.2157 2.253C21.7537 2.319 21.4677 2.484 21.3577 2.748C21.2477 2.99 21.1927 3.386 21.1927 3.936V20.799C21.1927 21.327 21.2587 21.701 21.3907 21.921C21.5227 22.119 21.8197 22.262 22.2817 22.35L23.9317 22.581V24H14.4607V22.581L16.1767 22.35C16.6387 22.262 16.9247 22.097 17.0347 21.855C17.1447 21.591 17.1997 21.195 17.1997 20.667V2.484H6.83769V20.799C6.83769 21.327 6.89269 21.701 7.00269 21.921C7.13469 22.119 7.43169 22.262 7.89369 22.35L9.57669 22.581V24H0.0726915Z" fill="#333333"/>
</svg>
