<svg width="18" height="17" viewBox="0 0 18 17" fill="none" xmlns="http://www.w3.org/2000/svg">
<g id="Group">
<path id="Vector" fill-rule="evenodd" clip-rule="evenodd" d="M15.9222 11.9165C15.748 11.9165 15.583 11.8353 15.4383 11.6927C14.5316 13.9692 11.9421 16 8.95314 16C5.96524 16 3.48058 13.9771 2.56883 11.7085C2.42213 11.8561 2.25506 11.9393 2.07882 11.9393C1.48287 11.9393 1 10.9952 1 9.82924C1 8.66424 1.48287 7.72015 2.07882 7.72015C2.26016 7.72015 2.4313 7.80831 2.58207 7.96385C3.50401 5.71309 6.02942 4.09634 9 4.09634C11.9635 4.09634 14.4838 5.70516 15.4108 7.94799C15.5636 7.78751 15.7368 7.69736 15.9222 7.69736C16.5171 7.69736 17 8.64145 17 9.80646C17 10.9715 16.5171 11.9165 15.9222 11.9165Z" fill="#FEFEFE" stroke="#3D3D3D"/>
<path id="Vector_2" fill-rule="evenodd" clip-rule="evenodd" d="M1.45312 10.8675C1.55296 11.2063 1.78217 11.652 2.1428 11.652C2.36895 11.652 2.57779 11.5025 2.68679 11.2211C3.43657 13.8087 5.93549 15.7137 8.95599 15.7137C11.9857 15.7137 14.5773 13.7968 15.3179 11.1973C15.43 11.4807 15.6378 11.6372 15.8598 11.6372C16.2205 11.6372 16.4375 11.2043 16.5373 10.8655C15.6011 11.9809 15.3128 10.5118 15.3148 9.85401L15.3057 8.49385C14.3145 12.1087 12.4991 14.4219 8.9458 14.4219C5.39353 14.4219 3.62402 12.1503 2.68578 8.50673V9.85302C2.68578 10.49 2.40257 11.9988 1.45312 10.8675Z" fill="#D3D3D3"/>
<path id="Vector_3" fill-rule="evenodd" clip-rule="evenodd" d="M9.00379 0C9.53658 0 9.96852 0.300167 9.96852 0.670671C9.96852 0.986688 9.65475 1.27893 9.23096 1.35818C9.33182 1.68906 9.41841 2.02093 9.41841 2.36369V4.29447H8.58306V2.36369C8.58306 2.01994 8.66965 1.68807 8.7705 1.35719C8.34977 1.27695 8.03906 0.984707 8.03906 0.670671C8.03906 0.300167 8.471 0 9.00379 0Z" fill="#3D3D3D"/>
<path id="Vector_4" fill-rule="evenodd" clip-rule="evenodd" d="M10.9026 6.36989H7.10689C5.66031 6.36989 4.47656 7.52102 4.47656 8.92775V10.0185C4.47656 10.8258 5.15605 11.4866 5.9863 11.4866H12.0232C12.8535 11.4866 13.533 10.8258 13.533 10.0185V8.92775C13.533 7.52102 12.3492 6.36989 10.9026 6.36989Z" fill="#3D3D3D"/>
<g id="Group_2">
<path id="Vector_5" fill-rule="evenodd" clip-rule="evenodd" d="M7.68329 9.41869C7.45226 9.90199 6.86226 10.1116 6.36526 9.88692C5.86827 9.66225 5.65273 9.0885 5.88376 8.6052C6.1148 8.1219 6.7048 7.9123 7.2018 8.13697C7.69879 8.36164 7.91433 8.93539 7.68329 9.41869Z" fill="url(#paint0_linear_867_12103)" stroke="#2B2A29" stroke-width="0.755906"/>
<path id="Vector_6" fill-rule="evenodd" clip-rule="evenodd" d="M12.1586 9.01349C12.1577 9.54646 11.7128 9.97769 11.1647 9.97683C10.6167 9.97598 10.1732 9.54336 10.1741 9.01039C10.175 8.47742 10.6199 8.04619 11.1679 8.04705C11.716 8.0479 12.1594 8.48052 12.1586 9.01349Z" fill="url(#paint1_linear_867_12103)" stroke="#2B2A29" stroke-width="0.755906"/>
<g id="Group_3">
<path id="Rectangle 10" d="M5.78906 9.02408C5.78906 8.48847 6.23556 8.05428 6.78635 8.05428C7.33713 8.05428 7.78363 8.48847 7.78363 9.02408C7.78363 9.55969 7.33713 9.99389 6.78635 9.99389C6.23556 9.99389 5.78906 9.55969 5.78906 9.02408Z" fill="url(#paint2_linear_867_12103)"/>
<path id="Rectangle 11" d="M10.1836 9.02407C10.1836 8.48846 10.6301 8.05426 11.1809 8.05426C11.7317 8.05426 12.1782 8.48846 12.1782 9.02407C12.1782 9.55968 11.7317 9.99387 11.1809 9.99387C10.6301 9.99387 10.1836 9.55968 10.1836 9.02407Z" fill="url(#paint3_linear_867_12103)"/>
</g>
</g>
</g>
<defs>
<linearGradient id="paint0_linear_867_12103" x1="6.27571" y1="7.78529" x2="6.23618" y2="10.2773" gradientUnits="userSpaceOnUse">
<stop stop-color="#00FF88"/>
<stop offset="1" stop-color="#00BBFF"/>
</linearGradient>
<linearGradient id="paint1_linear_867_12103" x1="10.1756" y1="8.10621" x2="11.1666" y2="10.4053" gradientUnits="userSpaceOnUse">
<stop stop-color="#00FF88"/>
<stop offset="1" stop-color="#00BBFF"/>
</linearGradient>
<linearGradient id="paint2_linear_867_12103" x1="6.78635" y1="8.05428" x2="6.78635" y2="9.99389" gradientUnits="userSpaceOnUse">
<stop stop-color="#00FF88"/>
<stop offset="1" stop-color="#00BBFF"/>
</linearGradient>
<linearGradient id="paint3_linear_867_12103" x1="11.1809" y1="8.05426" x2="11.1809" y2="9.99387" gradientUnits="userSpaceOnUse">
<stop stop-color="#00FF88"/>
<stop offset="1" stop-color="#00BBFF"/>
</linearGradient>
</defs>
</svg>
