<svg width="120" height="84" viewBox="0 0 120 84" fill="none" xmlns="http://www.w3.org/2000/svg">
<path fill-rule="evenodd" clip-rule="evenodd" d="M87.4543 49.144C86.7634 49.144 86.1089 48.816 85.5352 48.24C81.9392 57.432 71.6685 65.632 59.8139 65.632C47.9634 65.632 38.1089 57.464 34.4927 48.304C33.9109 48.9 33.2483 49.236 32.5493 49.236C30.1857 49.236 28.2705 45.424 28.2705 40.716C28.2705 36.012 30.1857 32.2 32.5493 32.2C33.2685 32.2 33.9473 32.556 34.5453 33.184C38.2018 24.096 48.218 17.568 59.9998 17.568C71.7533 17.568 81.7493 24.064 85.4261 33.12C86.0321 32.472 86.719 32.108 87.4543 32.108C89.8139 32.108 91.7291 35.92 91.7291 40.624C91.7291 45.328 89.8139 49.144 87.4543 49.144Z" fill="#FEFEFE" stroke="#3A3A3A" stroke-width="2"/>
<path fill-rule="evenodd" clip-rule="evenodd" d="M30.0762 44.908C30.4721 46.276 31.3812 48.076 32.8115 48.076C33.7085 48.076 34.5368 47.472 34.9691 46.336C37.9428 56.784 47.854 64.476 59.8337 64.476C71.8499 64.476 82.1287 56.736 85.0661 46.24C85.5105 47.384 86.3348 48.016 87.2156 48.016C88.6459 48.016 89.5065 46.268 89.9024 44.9C86.1893 49.404 85.0459 43.472 85.054 40.816L85.0176 35.324C81.0863 49.92 73.8863 59.26 59.7933 59.26C45.7045 59.26 38.6863 50.088 34.9651 35.376V40.812C34.9651 43.384 33.8418 49.476 30.0762 44.908Z" fill="#D3D3D3"/>
<path fill-rule="evenodd" clip-rule="evenodd" d="M60.0001 1.02802C62.1132 1.02802 63.8264 2.24002 63.8264 3.73601C63.8264 5.01201 62.5819 6.19201 60.9011 6.51201C61.3011 7.84801 61.6445 9.18801 61.6445 10.572V18.368H58.3314V10.572C58.3314 9.18401 58.6748 7.84401 59.0748 6.50801C57.4062 6.18401 56.1738 5.00401 56.1738 3.73601C56.1738 2.24002 57.887 1.02802 60.0001 1.02802Z" fill="#3A3A3A"/>
<path fill-rule="evenodd" clip-rule="evenodd" d="M67.5269 26.748H52.4724C46.735 26.748 42.04 31.396 42.04 37.076V41.48C42.04 44.74 44.735 47.408 48.0279 47.408H71.9714C75.2643 47.408 77.9592 44.74 77.9592 41.48V37.076C77.9592 31.396 73.2643 26.748 67.5269 26.748Z" fill="#3A3A3A"/>
<path fill-rule="evenodd" clip-rule="evenodd" d="M54.7766 39.0584C53.8603 41.0098 51.5203 41.8561 49.5491 40.949C47.5779 40.0418 46.7231 37.7251 47.6394 35.7737C48.5557 33.8222 50.8958 32.9759 52.8669 33.8831C54.8381 34.7903 55.6929 37.1069 54.7766 39.0584Z" fill="url(#paint0_linear_202_699)" stroke="#2B2A29" stroke-width="0.755906"/>
<path fill-rule="evenodd" clip-rule="evenodd" d="M72.5249 37.4223C72.5214 39.5743 70.757 41.3155 68.5832 41.312C66.4095 41.3086 64.6507 39.5617 64.6542 37.4098C64.6577 35.2578 66.4222 33.5166 68.5959 33.52C70.7696 33.5235 72.5284 35.2703 72.5249 37.4223Z" fill="url(#paint1_linear_202_699)" stroke="#2B2A29" stroke-width="0.755906"/>
<path d="M47.251 37.4651C47.251 35.3024 49.0219 33.5492 51.2064 33.5492C53.3909 33.5492 55.1618 35.3024 55.1618 37.4651C55.1618 39.6277 53.3909 41.3809 51.2064 41.3809C49.0219 41.3809 47.251 39.6277 47.251 37.4651Z" fill="url(#paint2_linear_202_699)"/>
<path d="M64.6758 37.465C64.6758 35.3024 66.4467 33.5492 68.6312 33.5492C70.8157 33.5492 72.5866 35.3024 72.5866 37.465C72.5866 39.6277 70.8157 41.3809 68.6312 41.3809C66.4467 41.3809 64.6758 39.6277 64.6758 37.465Z" fill="url(#paint3_linear_202_699)"/>
<path fill-rule="evenodd" clip-rule="evenodd" d="M87.4543 49.144C86.7634 49.144 86.1089 48.816 85.5352 48.24C81.9392 57.432 71.6685 65.632 59.8139 65.632C47.9634 65.632 38.1089 57.464 34.4927 48.304C33.9109 48.9 33.2483 49.236 32.5493 49.236C30.1857 49.236 28.2705 45.424 28.2705 40.716C28.2705 36.012 30.1857 32.2 32.5493 32.2C33.2685 32.2 33.9473 32.556 34.5453 33.184C38.2018 24.096 48.218 17.568 59.9998 17.568C71.7533 17.568 81.7493 24.064 85.4261 33.12C86.0321 32.472 86.719 32.108 87.4543 32.108C89.8139 32.108 91.7291 35.92 91.7291 40.624C91.7291 45.328 89.8139 49.144 87.4543 49.144Z" stroke="#3A3A3A" stroke-width="2"/>
<path d="M37.9556 74.924C38.7677 74.924 39.2364 75.316 39.2364 76.644V78.5H36.6505V76.684C36.6505 75.316 37.099 74.924 37.9556 74.924ZM39.2364 80.624V81.44C39.2364 82.46 39.7091 82.964 41.099 82.964C42.501 82.964 42.8283 82.16 42.8283 78.204C42.8283 73.836 40.0323 72.412 37.9879 72.412C35.9313 72.412 33.0586 73.836 33.0586 78.204C33.0586 82.16 33.402 82.964 34.7919 82.964C36.1859 82.964 36.6505 82.46 36.6505 81.44V80.624H39.2364Z" fill="white"/>
<path d="M48.1374 80.648V74.124C48.1334 72.628 47.3576 72.416 46.3192 72.416C45.3132 72.416 44.5576 72.884 44.5576 74.264V80.764C44.5657 82.468 45.1556 82.964 46.3192 82.964C47.5071 82.964 48.1374 82.284 48.1374 80.648Z" fill="white"/>
<path d="M60.9734 80.648V75.08L62.424 75.076C63.5472 75.072 64.2219 74.82 64.2219 73.796C64.2219 72.756 63.7169 72.428 62.5815 72.428H55.9149C54.6421 72.428 54.0967 72.736 54.0967 73.688C54.0967 74.796 54.8482 75.072 56.0603 75.076L57.3856 75.08L57.4098 80.768C57.4179 82.468 57.9957 82.964 59.1593 82.964C60.3431 82.964 60.9734 82.44 60.9734 80.648Z" fill="white"/>
<path d="M68.1085 77.72L66.254 79.56C65.6479 80.212 65.3408 80.708 65.3408 81.176C65.3408 81.604 65.5711 81.996 65.9832 82.404C66.363 82.78 66.7671 82.964 67.1913 82.964C67.7004 82.964 68.3348 82.736 68.8964 82.032L70.5489 79.8L72.5449 82.372C72.9368 82.844 73.3731 82.972 73.7408 82.972C74.1974 82.972 74.6095 82.7 75.0216 82.336C75.4499 81.96 75.6762 81.488 75.6762 81C75.6762 80.584 75.4418 80.172 75.0297 79.716L72.9166 77.544L74.763 75.812C75.3812 75.18 75.6762 74.664 75.6762 74.192C75.6762 73.768 75.4418 73.376 75.0297 72.968C74.658 72.6 74.2499 72.424 73.8216 72.424C73.3166 72.424 72.6903 72.66 72.1166 73.36L70.4681 75.536L68.4681 73.016C68.0762 72.548 67.6439 72.416 67.2721 72.416C66.8156 72.416 66.4034 72.688 65.9913 73.052C65.5671 73.428 65.3408 73.9 65.3408 74.388C65.3408 74.804 65.563 75.232 65.9832 75.672L68.1085 77.72Z" fill="white"/>
<path d="M83.6891 80.648V75.08L85.1437 75.076C86.2669 75.072 86.9417 74.82 86.9417 73.796C86.9417 72.756 86.4326 72.428 85.3013 72.428H78.6346C77.3619 72.428 76.8164 72.736 76.8164 73.688C76.8164 74.796 77.5639 75.072 78.78 75.076L80.1053 75.08L80.1255 80.768C80.1376 82.468 80.7154 82.964 81.879 82.964C83.0629 82.964 83.6891 82.44 83.6891 80.648Z" fill="white"/>
<defs>
<linearGradient id="paint0_linear_202_699" x1="49.1939" y1="32.4631" x2="49.0314" y2="42.5253" gradientUnits="userSpaceOnUse">
<stop stop-color="#00FF88"/>
<stop offset="1" stop-color="#00BBFF"/>
</linearGradient>
<linearGradient id="paint1_linear_202_699" x1="64.6602" y1="33.7589" x2="68.7106" y2="42.9893" gradientUnits="userSpaceOnUse">
<stop stop-color="#00FF88"/>
<stop offset="1" stop-color="#00BBFF"/>
</linearGradient>
<linearGradient id="paint2_linear_202_699" x1="51.2064" y1="33.5492" x2="51.2064" y2="41.3809" gradientUnits="userSpaceOnUse">
<stop stop-color="#00FF88"/>
<stop offset="1" stop-color="#00BBFF"/>
</linearGradient>
<linearGradient id="paint3_linear_202_699" x1="68.6312" y1="33.5492" x2="68.6312" y2="41.3809" gradientUnits="userSpaceOnUse">
<stop stop-color="#00FF88"/>
<stop offset="1" stop-color="#00BBFF"/>
</linearGradient>
</defs>
</svg>
