<svg width="120" height="84" viewBox="0 0 120 84" fill="none" xmlns="http://www.w3.org/2000/svg">
<path fill-rule="evenodd" clip-rule="evenodd" d="M87.4546 49.1439C86.7637 49.1439 86.1091 48.8159 85.5354 48.2399C81.9394 57.4319 71.6687 65.6319 59.8142 65.6319C47.9637 65.6319 38.1091 57.4639 34.493 48.3039C33.9112 48.8999 33.2485 49.2359 32.5495 49.2359C30.1859 49.2359 28.2708 45.4239 28.2708 40.7159C28.2708 36.0119 30.1859 32.1999 32.5495 32.1999C33.2687 32.1999 33.9475 32.5559 34.5455 33.1839C38.2021 24.0959 48.2182 17.5679 60 17.5679C71.7536 17.5679 81.7495 24.0639 85.4263 33.1199C86.0324 32.4719 86.7192 32.1079 87.4546 32.1079C89.8142 32.1079 91.7293 35.9199 91.7293 40.6239C91.7293 45.3279 89.8142 49.1439 87.4546 49.1439Z" fill="#FEFEFE" stroke="#3A3A3A" stroke-width="2"/>
<path fill-rule="evenodd" clip-rule="evenodd" d="M30.0764 44.9077C30.4724 46.2757 31.3815 48.0757 32.8118 48.0757C33.7087 48.0757 34.537 47.4717 34.9693 46.3357C37.9431 56.7837 47.8542 64.4757 59.834 64.4757C71.8502 64.4757 82.1289 56.7357 85.0663 46.2397C85.5108 47.3837 86.335 48.0157 87.2158 48.0157C88.6461 48.0157 89.5067 46.2677 89.9027 44.8997C86.1895 49.4037 85.0461 43.4717 85.0542 40.8157L85.0178 35.3237C81.0865 49.9197 73.8865 59.2597 59.7936 59.2597C45.7047 59.2597 38.6865 50.0877 34.9653 35.3757V40.8117C34.9653 43.3837 33.8421 49.4757 30.0764 44.9077Z" fill="#D3D3D3"/>
<path fill-rule="evenodd" clip-rule="evenodd" d="M60.0003 1.02783C62.1135 1.02783 63.8266 2.23983 63.8266 3.73583C63.8266 5.01183 62.5822 6.19183 60.9013 6.51183C61.3013 7.84783 61.6448 9.18783 61.6448 10.5718V18.3678H58.3316V10.5718C58.3316 9.18383 58.6751 7.84383 59.0751 6.50783C57.4064 6.18383 56.1741 5.00383 56.1741 3.73583C56.1741 2.23983 57.8872 1.02783 60.0003 1.02783Z" fill="#3A3A3A"/>
<path fill-rule="evenodd" clip-rule="evenodd" d="M67.5274 26.748H52.4729C46.7355 26.748 42.0405 31.396 42.0405 37.076V41.48C42.0405 44.74 44.7355 47.408 48.0284 47.408H71.9718C75.2648 47.408 77.9597 44.74 77.9597 41.48V37.076C77.9597 31.396 73.2648 26.748 67.5274 26.748Z" fill="#3A3A3A"/>
<path fill-rule="evenodd" clip-rule="evenodd" d="M54.7766 39.0583C53.8603 41.0098 51.5203 41.8561 49.5491 40.9489C47.5779 40.0417 46.7231 37.7251 47.6394 35.7737C48.5557 33.8222 50.8958 32.9759 52.8669 33.8831C54.8381 34.7902 55.6929 37.1069 54.7766 39.0583Z" fill="url(#paint0_linear_118_42220)" stroke="#2B2A29" stroke-width="0.755906"/>
<path fill-rule="evenodd" clip-rule="evenodd" d="M72.5249 37.4224C72.5214 39.5744 70.757 41.3156 68.5832 41.3121C66.4095 41.3086 64.6507 39.5618 64.6542 37.4098C64.6577 35.2578 66.4222 33.5166 68.5959 33.5201C70.7696 33.5236 72.5284 35.2704 72.5249 37.4224Z" fill="url(#paint1_linear_118_42220)" stroke="#2B2A29" stroke-width="0.755906"/>
<path d="M47.2507 37.4651C47.2507 35.3025 49.0216 33.5493 51.2061 33.5493C53.3906 33.5493 55.1615 35.3025 55.1615 37.4651C55.1615 39.6278 53.3906 41.381 51.2061 41.381C49.0216 41.381 47.2507 39.6278 47.2507 37.4651Z" fill="url(#paint2_linear_118_42220)"/>
<path d="M64.6755 37.4651C64.6755 35.3025 66.4464 33.5493 68.6309 33.5493C70.8154 33.5493 72.5863 35.3025 72.5863 37.4651C72.5863 39.6278 70.8154 41.381 68.6309 41.381C66.4464 41.381 64.6755 39.6278 64.6755 37.4651Z" fill="url(#paint3_linear_118_42220)"/>
<path fill-rule="evenodd" clip-rule="evenodd" d="M87.4546 49.1439C86.7637 49.1439 86.1091 48.8159 85.5354 48.2399C81.9394 57.4319 71.6687 65.6319 59.8142 65.6319C47.9637 65.6319 38.1091 57.4639 34.493 48.3039C33.9112 48.8999 33.2485 49.2359 32.5495 49.2359C30.1859 49.2359 28.2708 45.4239 28.2708 40.7159C28.2708 36.0119 30.1859 32.1999 32.5495 32.1999C33.2687 32.1999 33.9475 32.5559 34.5455 33.1839C38.2021 24.0959 48.2182 17.5679 60 17.5679C71.7536 17.5679 81.7495 24.0639 85.4263 33.1199C86.0324 32.4719 86.7192 32.1079 87.4546 32.1079C89.8142 32.1079 91.7293 35.9199 91.7293 40.6239C91.7293 45.3279 89.8142 49.1439 87.4546 49.1439Z" stroke="#3A3A3A" stroke-width="2"/>
<path d="M37.9556 74.9236C38.7677 74.9236 39.2364 75.3156 39.2364 76.6436V78.4996H36.6505V76.6836C36.6505 75.3156 37.099 74.9236 37.9556 74.9236ZM39.2364 80.6236V81.4396C39.2364 82.4596 39.7091 82.9636 41.099 82.9636C42.501 82.9636 42.8283 82.1596 42.8283 78.2036C42.8283 73.8356 40.0323 72.4116 37.9879 72.4116C35.9313 72.4116 33.0586 73.8356 33.0586 78.2036C33.0586 82.1596 33.402 82.9636 34.7919 82.9636C36.1859 82.9636 36.6505 82.4596 36.6505 81.4396V80.6236H39.2364Z" fill="#333333"/>
<path d="M48.1374 80.648V74.124C48.1334 72.628 47.3576 72.416 46.3192 72.416C45.3132 72.416 44.5576 72.884 44.5576 74.264V80.764C44.5657 82.468 45.1556 82.964 46.3192 82.964C47.5071 82.964 48.1374 82.284 48.1374 80.648Z" fill="#333333"/>
<path d="M60.9737 80.6477V75.0797L62.4242 75.0757C63.5474 75.0717 64.2222 74.8197 64.2222 73.7957C64.2222 72.7557 63.7171 72.4277 62.5818 72.4277H55.9151C54.6424 72.4277 54.0969 72.7357 54.0969 73.6877C54.0969 74.7957 54.8484 75.0717 56.0606 75.0757L57.3858 75.0797L57.4101 80.7677C57.4181 82.4677 57.9959 82.9637 59.1596 82.9637C60.3434 82.9637 60.9737 82.4397 60.9737 80.6477Z" fill="#333333"/>
<path d="M68.1087 77.72L66.2542 79.56C65.6481 80.212 65.3411 80.708 65.3411 81.176C65.3411 81.604 65.5714 81.996 65.9835 82.404C66.3633 82.78 66.7673 82.964 67.1916 82.964C67.7007 82.964 68.335 82.736 68.8966 82.032L70.5491 79.8L72.5451 82.372C72.937 82.844 73.3734 82.972 73.7411 82.972C74.1976 82.972 74.6098 82.7 75.0219 82.336C75.4502 81.96 75.6764 81.488 75.6764 81C75.6764 80.584 75.4421 80.172 75.03 79.716L72.9168 77.544L74.7633 75.812C75.3815 75.18 75.6764 74.664 75.6764 74.192C75.6764 73.768 75.4421 73.376 75.03 72.968C74.6582 72.6 74.2502 72.424 73.8219 72.424C73.3168 72.424 72.6906 72.66 72.1168 73.36L70.4683 75.536L68.4683 73.016C68.0764 72.548 67.6441 72.416 67.2724 72.416C66.8158 72.416 66.4037 72.688 65.9916 73.052C65.5673 73.428 65.3411 73.9 65.3411 74.388C65.3411 74.804 65.5633 75.232 65.9835 75.672L68.1087 77.72Z" fill="#333333"/>
<path d="M83.6894 80.6477V75.0797L85.1439 75.0757C86.2672 75.0717 86.9419 74.8197 86.9419 73.7957C86.9419 72.7557 86.4328 72.4277 85.3015 72.4277H78.6348C77.3621 72.4277 76.8167 72.7357 76.8167 73.6877C76.8167 74.7957 77.5641 75.0717 78.7803 75.0757L80.1055 75.0797L80.1257 80.7677C80.1379 82.4677 80.7156 82.9637 81.8793 82.9637C83.0631 82.9637 83.6894 82.4397 83.6894 80.6477Z" fill="#333333"/>
<defs>
<linearGradient id="paint0_linear_118_42220" x1="49.1939" y1="32.463" x2="49.0314" y2="42.5252" gradientUnits="userSpaceOnUse">
<stop stop-color="#00FF88"/>
<stop offset="1" stop-color="#00BBFF"/>
</linearGradient>
<linearGradient id="paint1_linear_118_42220" x1="64.6602" y1="33.759" x2="68.7106" y2="42.9894" gradientUnits="userSpaceOnUse">
<stop stop-color="#00FF88"/>
<stop offset="1" stop-color="#00BBFF"/>
</linearGradient>
<linearGradient id="paint2_linear_118_42220" x1="51.2061" y1="33.5493" x2="51.2061" y2="41.381" gradientUnits="userSpaceOnUse">
<stop stop-color="#00FF88"/>
<stop offset="1" stop-color="#00BBFF"/>
</linearGradient>
<linearGradient id="paint3_linear_118_42220" x1="68.6309" y1="33.5493" x2="68.6309" y2="41.381" gradientUnits="userSpaceOnUse">
<stop stop-color="#00FF88"/>
<stop offset="1" stop-color="#00BBFF"/>
</linearGradient>
</defs>
</svg>
