<svg width="24" height="25" viewBox="0 0 24 25" fill="none" xmlns="http://www.w3.org/2000/svg">
<mask id="path-1-inside-1_202_2948" fill="white">
<path fill-rule="evenodd" clip-rule="evenodd" d="M12.8184 0.00397564C11.6646 1.89705 11 4.12091 11 6.5C11 13.2971 16.4252 18.8271 23.1816 18.996C20.9875 22.5962 17.0245 25 12.5 25C5.59644 25 0 19.4036 0 12.5C0 5.59644 5.59644 0 12.5 0C12.6064 0 12.7126 0.00133046 12.8184 0.00397564Z"/>
</mask>
<path d="M12.8184 0.00397564L13.6723 0.524394L14.5724 -0.952486L12.8434 -0.995712L12.8184 0.00397564ZM23.1816 18.996L24.0355 19.5164L24.9356 18.0396L23.2066 17.9963L23.1816 18.996ZM12 6.5C12 4.30965 12.6114 2.26515 13.6723 0.524394L11.9645 -0.516443C10.7179 1.52895 10 3.93216 10 6.5H12ZM23.2066 17.9963C16.9912 17.8409 12 12.7532 12 6.5H10C10 13.841 15.8592 19.8133 23.1566 19.9957L23.2066 17.9963ZM22.3277 18.4756C20.3075 21.7904 16.6613 24 12.5 24V26C17.3876 26 21.6675 23.402 24.0355 19.5164L22.3277 18.4756ZM12.5 24C6.14873 24 1 18.8513 1 12.5H-1C-1 19.9558 5.04416 26 12.5 26V24ZM1 12.5C1 6.14873 6.14873 1 12.5 1V-1C5.04416 -1 -1 5.04416 -1 12.5H1ZM12.5 1C12.5981 1 12.6959 1.00123 12.7934 1.00366L12.8434 -0.995712C12.7292 -0.998565 12.6148 -1 12.5 -1V1Z" fill="white" mask="url(#path-1-inside-1_202_2948)"/>
</svg>
